<svg width="1512" height="688" viewBox="0 0 1512 688" fill="none" xmlns="http://www.w3.org/2000/svg">
<rect x="0.673797" y="0.673797" width="67.3797" height="67.3797" stroke="#F2F2F2" stroke-opacity="0.9" stroke-width="1.34759"/>
<rect x="0.673797" y="69.4004" width="67.3797" height="67.3797" stroke="#F2F2F2" stroke-opacity="0.9" stroke-width="1.34759"/>
<rect x="0.673797" y="138.127" width="67.3797" height="67.3797" stroke="#F2F2F2" stroke-opacity="0.9" stroke-width="1.34759"/>
<rect x="0.673797" y="206.857" width="67.3797" height="67.3797" stroke="#F2F2F2" stroke-opacity="0.9" stroke-width="1.34759"/>
<rect x="0.673797" y="275.584" width="67.3797" height="67.3797" stroke="#F2F2F2" stroke-opacity="0.9" stroke-width="1.34759"/>
<rect x="0.673797" y="344.311" width="67.3797" height="67.3797" stroke="#F2F2F2" stroke-opacity="0.9" stroke-width="1.34759"/>
<rect x="0.673797" y="413.037" width="67.3797" height="67.3797" stroke="#F2F2F2" stroke-opacity="0.9" stroke-width="1.34759"/>
<rect x="0.673797" y="481.764" width="67.3797" height="67.3797" stroke="#F2F2F2" stroke-opacity="0.9" stroke-width="1.34759"/>
<rect x="0.673797" y="550.49" width="67.3797" height="67.3797" stroke="#F2F2F2" stroke-opacity="0.9" stroke-width="1.34759"/>
<rect x="0.673797" y="619.221" width="67.3797" height="67.3797" stroke="#F2F2F2" stroke-opacity="0.9" stroke-width="1.34759"/>
<rect x="69.4004" y="0.673797" width="67.3797" height="67.3797" stroke="#F2F2F2" stroke-opacity="0.9" stroke-width="1.34759"/>
<rect x="68.7266" y="68.7266" width="68.7273" height="68.7273" fill="#F2F2F2"/>
<rect x="69.4004" y="69.4004" width="67.3797" height="67.3797" stroke="#F2F2F2" stroke-opacity="0.9" stroke-width="1.34759"/>
<rect x="69.4004" y="138.127" width="67.3797" height="67.3797" stroke="#F2F2F2" stroke-opacity="0.9" stroke-width="1.34759"/>
<rect x="69.4004" y="206.857" width="67.3797" height="67.3797" stroke="#F2F2F2" stroke-opacity="0.9" stroke-width="1.34759"/>
<rect x="69.4004" y="275.584" width="67.3797" height="67.3797" stroke="#F2F2F2" stroke-opacity="0.9" stroke-width="1.34759"/>
<rect x="69.4004" y="344.311" width="67.3797" height="67.3797" stroke="#F2F2F2" stroke-opacity="0.9" stroke-width="1.34759"/>
<rect x="69.4004" y="413.037" width="67.3797" height="67.3797" stroke="#F2F2F2" stroke-opacity="0.9" stroke-width="1.34759"/>
<rect x="69.4004" y="481.764" width="67.3797" height="67.3797" stroke="#F2F2F2" stroke-opacity="0.9" stroke-width="1.34759"/>
<rect x="69.4004" y="550.49" width="67.3797" height="67.3797" stroke="#F2F2F2" stroke-opacity="0.9" stroke-width="1.34759"/>
<rect x="69.4004" y="619.221" width="67.3797" height="67.3797" stroke="#F2F2F2" stroke-opacity="0.9" stroke-width="1.34759"/>
<rect x="138.129" y="0.673797" width="67.3797" height="67.3797" stroke="#F2F2F2" stroke-opacity="0.9" stroke-width="1.34759"/>
<rect x="138.129" y="69.4004" width="67.3797" height="67.3797" stroke="#F2F2F2" stroke-opacity="0.9" stroke-width="1.34759"/>
<rect x="138.129" y="138.127" width="67.3797" height="67.3797" stroke="#F2F2F2" stroke-opacity="0.9" stroke-width="1.34759"/>
<rect x="138.129" y="206.857" width="67.3797" height="67.3797" stroke="#F2F2F2" stroke-opacity="0.9" stroke-width="1.34759"/>
<rect x="138.129" y="275.584" width="67.3797" height="67.3797" stroke="#F2F2F2" stroke-opacity="0.9" stroke-width="1.34759"/>
<rect x="138.129" y="344.311" width="67.3797" height="67.3797" stroke="#F2F2F2" stroke-opacity="0.9" stroke-width="1.34759"/>
<rect x="138.129" y="413.037" width="67.3797" height="67.3797" stroke="#F2F2F2" stroke-opacity="0.9" stroke-width="1.34759"/>
<rect x="138.129" y="481.764" width="67.3797" height="67.3797" stroke="#F2F2F2" stroke-opacity="0.9" stroke-width="1.34759"/>
<rect x="138.129" y="550.49" width="67.3797" height="67.3797" stroke="#F2F2F2" stroke-opacity="0.9" stroke-width="1.34759"/>
<rect x="138.129" y="619.221" width="67.3797" height="67.3797" stroke="#F2F2F2" stroke-opacity="0.9" stroke-width="1.34759"/>
<rect x="206.855" y="0.673797" width="67.3797" height="67.3797" stroke="#F2F2F2" stroke-opacity="0.9" stroke-width="1.34759"/>
<rect x="206.855" y="69.4004" width="67.3797" height="67.3797" stroke="#F2F2F2" stroke-opacity="0.9" stroke-width="1.34759"/>
<rect x="206.855" y="138.127" width="67.3797" height="67.3797" stroke="#F2F2F2" stroke-opacity="0.9" stroke-width="1.34759"/>
<rect x="206.855" y="206.857" width="67.3797" height="67.3797" stroke="#F2F2F2" stroke-opacity="0.9" stroke-width="1.34759"/>
<rect x="206.855" y="275.584" width="67.3797" height="67.3797" stroke="#F2F2F2" stroke-opacity="0.9" stroke-width="1.34759"/>
<rect x="206.855" y="344.311" width="67.3797" height="67.3797" stroke="#F2F2F2" stroke-opacity="0.9" stroke-width="1.34759"/>
<rect x="206.855" y="413.037" width="67.3797" height="67.3797" stroke="#F2F2F2" stroke-opacity="0.9" stroke-width="1.34759"/>
<rect x="206.182" y="481.09" width="68.7273" height="68.7273" fill="#F2F2F2"/>
<rect x="206.855" y="481.764" width="67.3797" height="67.3797" stroke="#F2F2F2" stroke-opacity="0.9" stroke-width="1.34759"/>
<rect x="206.855" y="550.49" width="67.3797" height="67.3797" stroke="#F2F2F2" stroke-opacity="0.9" stroke-width="1.34759"/>
<rect x="206.855" y="619.221" width="67.3797" height="67.3797" stroke="#F2F2F2" stroke-opacity="0.9" stroke-width="1.34759"/>
<rect x="275.582" y="0.673797" width="67.3797" height="67.3797" stroke="#F2F2F2" stroke-opacity="0.9" stroke-width="1.34759"/>
<rect x="275.582" y="69.4004" width="67.3797" height="67.3797" stroke="#F2F2F2" stroke-opacity="0.9" stroke-width="1.34759"/>
<rect x="275.582" y="138.127" width="67.3797" height="67.3797" stroke="#F2F2F2" stroke-opacity="0.9" stroke-width="1.34759"/>
<rect x="274.908" y="206.184" width="68.7273" height="68.7273" fill="#F2F2F2"/>
<rect x="275.582" y="206.857" width="67.3797" height="67.3797" stroke="#F2F2F2" stroke-opacity="0.9" stroke-width="1.34759"/>
<rect x="275.582" y="275.584" width="67.3797" height="67.3797" stroke="#F2F2F2" stroke-opacity="0.9" stroke-width="1.34759"/>
<rect x="275.582" y="344.311" width="67.3797" height="67.3797" stroke="#F2F2F2" stroke-opacity="0.9" stroke-width="1.34759"/>
<rect x="275.582" y="413.037" width="67.3797" height="67.3797" stroke="#F2F2F2" stroke-opacity="0.9" stroke-width="1.34759"/>
<rect x="275.582" y="481.764" width="67.3797" height="67.3797" stroke="#F2F2F2" stroke-opacity="0.9" stroke-width="1.34759"/>
<rect x="275.582" y="550.49" width="67.3797" height="67.3797" stroke="#F2F2F2" stroke-opacity="0.9" stroke-width="1.34759"/>
<rect x="275.582" y="619.221" width="67.3797" height="67.3797" stroke="#F2F2F2" stroke-opacity="0.9" stroke-width="1.34759"/>
<rect x="344.311" y="0.673797" width="67.3797" height="67.3797" stroke="#F2F2F2" stroke-opacity="0.9" stroke-width="1.34759"/>
<rect x="344.311" y="69.4004" width="67.3797" height="67.3797" stroke="#F2F2F2" stroke-opacity="0.9" stroke-width="1.34759"/>
<rect x="344.311" y="138.127" width="67.3797" height="67.3797" stroke="#F2F2F2" stroke-opacity="0.9" stroke-width="1.34759"/>
<rect x="344.311" y="206.857" width="67.3797" height="67.3797" stroke="#F2F2F2" stroke-opacity="0.9" stroke-width="1.34759"/>
<rect x="344.311" y="275.584" width="67.3797" height="67.3797" stroke="#F2F2F2" stroke-opacity="0.9" stroke-width="1.34759"/>
<rect x="344.311" y="344.311" width="67.3797" height="67.3797" stroke="#F2F2F2" stroke-opacity="0.9" stroke-width="1.34759"/>
<rect x="344.311" y="413.037" width="67.3797" height="67.3797" stroke="#F2F2F2" stroke-opacity="0.9" stroke-width="1.34759"/>
<rect x="344.311" y="481.764" width="67.3797" height="67.3797" stroke="#F2F2F2" stroke-opacity="0.9" stroke-width="1.34759"/>
<rect x="344.311" y="550.49" width="67.3797" height="67.3797" stroke="#F2F2F2" stroke-opacity="0.9" stroke-width="1.34759"/>
<rect x="344.311" y="619.221" width="67.3797" height="67.3797" stroke="#F2F2F2" stroke-opacity="0.9" stroke-width="1.34759"/>
<rect x="413.037" y="0.673797" width="67.3797" height="67.3797" stroke="#F2F2F2" stroke-opacity="0.9" stroke-width="1.34759"/>
<rect x="413.037" y="69.4004" width="67.3797" height="67.3797" stroke="#F2F2F2" stroke-opacity="0.9" stroke-width="1.34759"/>
<rect x="413.037" y="138.127" width="67.3797" height="67.3797" stroke="#F2F2F2" stroke-opacity="0.9" stroke-width="1.34759"/>
<rect x="413.037" y="206.857" width="67.3797" height="67.3797" stroke="#F2F2F2" stroke-opacity="0.9" stroke-width="1.34759"/>
<rect x="413.037" y="275.584" width="67.3797" height="67.3797" stroke="#F2F2F2" stroke-opacity="0.9" stroke-width="1.34759"/>
<rect x="413.037" y="344.311" width="67.3797" height="67.3797" stroke="#F2F2F2" stroke-opacity="0.9" stroke-width="1.34759"/>
<rect x="413.037" y="413.037" width="67.3797" height="67.3797" stroke="#F2F2F2" stroke-opacity="0.9" stroke-width="1.34759"/>
<rect x="413.037" y="481.764" width="67.3797" height="67.3797" stroke="#F2F2F2" stroke-opacity="0.9" stroke-width="1.34759"/>
<rect x="413.037" y="550.49" width="67.3797" height="67.3797" stroke="#F2F2F2" stroke-opacity="0.9" stroke-width="1.34759"/>
<rect x="413.037" y="619.221" width="67.3797" height="67.3797" stroke="#F2F2F2" stroke-opacity="0.9" stroke-width="1.34759"/>
<rect x="481.766" y="0.673797" width="67.3797" height="67.3797" stroke="#F2F2F2" stroke-opacity="0.9" stroke-width="1.34759"/>
<rect x="481.766" y="69.4004" width="67.3797" height="67.3797" stroke="#F2F2F2" stroke-opacity="0.9" stroke-width="1.34759"/>
<rect x="481.766" y="138.127" width="67.3797" height="67.3797" stroke="#F2F2F2" stroke-opacity="0.9" stroke-width="1.34759"/>
<rect x="481.766" y="206.857" width="67.3797" height="67.3797" stroke="#F2F2F2" stroke-opacity="0.9" stroke-width="1.34759"/>
<rect x="481.766" y="275.584" width="67.3797" height="67.3797" stroke="#F2F2F2" stroke-opacity="0.9" stroke-width="1.34759"/>
<rect x="481.766" y="344.311" width="67.3797" height="67.3797" stroke="#F2F2F2" stroke-opacity="0.9" stroke-width="1.34759"/>
<rect x="481.766" y="413.037" width="67.3797" height="67.3797" stroke="#F2F2F2" stroke-opacity="0.9" stroke-width="1.34759"/>
<rect x="481.766" y="481.764" width="67.3797" height="67.3797" stroke="#F2F2F2" stroke-opacity="0.9" stroke-width="1.34759"/>
<rect x="481.766" y="550.49" width="67.3797" height="67.3797" stroke="#F2F2F2" stroke-opacity="0.9" stroke-width="1.34759"/>
<rect x="481.766" y="619.221" width="67.3797" height="67.3797" stroke="#F2F2F2" stroke-opacity="0.9" stroke-width="1.34759"/>
<rect x="550.492" y="0.673797" width="67.3797" height="67.3797" stroke="#F2F2F2" stroke-opacity="0.9" stroke-width="1.34759"/>
<rect x="550.492" y="69.4004" width="67.3797" height="67.3797" stroke="#F2F2F2" stroke-opacity="0.9" stroke-width="1.34759"/>
<rect x="550.492" y="138.127" width="67.3797" height="67.3797" stroke="#F2F2F2" stroke-opacity="0.9" stroke-width="1.34759"/>
<rect x="550.492" y="206.857" width="67.3797" height="67.3797" stroke="#F2F2F2" stroke-opacity="0.9" stroke-width="1.34759"/>
<rect x="550.492" y="275.584" width="67.3797" height="67.3797" stroke="#F2F2F2" stroke-opacity="0.9" stroke-width="1.34759"/>
<rect x="549.818" y="343.637" width="68.7273" height="68.7273" fill="#F2F2F2"/>
<rect x="550.492" y="344.311" width="67.3797" height="67.3797" stroke="#F2F2F2" stroke-opacity="0.9" stroke-width="1.34759"/>
<rect x="550.492" y="413.037" width="67.3797" height="67.3797" stroke="#F2F2F2" stroke-opacity="0.9" stroke-width="1.34759"/>
<rect x="550.492" y="481.764" width="67.3797" height="67.3797" stroke="#F2F2F2" stroke-opacity="0.9" stroke-width="1.34759"/>
<rect x="550.492" y="550.49" width="67.3797" height="67.3797" stroke="#F2F2F2" stroke-opacity="0.9" stroke-width="1.34759"/>
<rect x="550.492" y="619.221" width="67.3797" height="67.3797" stroke="#F2F2F2" stroke-opacity="0.9" stroke-width="1.34759"/>
<rect x="619.219" y="0.673797" width="67.3797" height="67.3797" stroke="#F2F2F2" stroke-opacity="0.9" stroke-width="1.34759"/>
<rect x="619.219" y="69.4004" width="67.3797" height="67.3797" stroke="#F2F2F2" stroke-opacity="0.9" stroke-width="1.34759"/>
<rect x="619.219" y="138.127" width="67.3797" height="67.3797" stroke="#F2F2F2" stroke-opacity="0.9" stroke-width="1.34759"/>
<rect x="619.219" y="206.857" width="67.3797" height="67.3797" stroke="#F2F2F2" stroke-opacity="0.9" stroke-width="1.34759"/>
<rect x="618.545" y="274.91" width="68.7273" height="68.7273" fill="#F2F2F2"/>
<rect x="619.219" y="275.584" width="67.3797" height="67.3797" stroke="#F2F2F2" stroke-opacity="0.9" stroke-width="1.34759"/>
<rect x="619.219" y="344.311" width="67.3797" height="67.3797" stroke="#F2F2F2" stroke-opacity="0.9" stroke-width="1.34759"/>
<rect x="619.219" y="413.037" width="67.3797" height="67.3797" stroke="#F2F2F2" stroke-opacity="0.9" stroke-width="1.34759"/>
<rect x="619.219" y="481.764" width="67.3797" height="67.3797" stroke="#F2F2F2" stroke-opacity="0.9" stroke-width="1.34759"/>
<rect x="619.219" y="550.49" width="67.3797" height="67.3797" stroke="#F2F2F2" stroke-opacity="0.9" stroke-width="1.34759"/>
<rect x="619.219" y="619.221" width="67.3797" height="67.3797" stroke="#F2F2F2" stroke-opacity="0.9" stroke-width="1.34759"/>
<rect x="687.947" y="0.673797" width="67.3797" height="67.3797" stroke="#F2F2F2" stroke-opacity="0.9" stroke-width="1.34759"/>
<rect x="687.947" y="69.4004" width="67.3797" height="67.3797" stroke="#F2F2F2" stroke-opacity="0.9" stroke-width="1.34759"/>
<rect x="687.947" y="138.127" width="67.3797" height="67.3797" stroke="#F2F2F2" stroke-opacity="0.9" stroke-width="1.34759"/>
<rect x="687.947" y="206.857" width="67.3797" height="67.3797" stroke="#F2F2F2" stroke-opacity="0.9" stroke-width="1.34759"/>
<rect x="687.947" y="275.584" width="67.3797" height="67.3797" stroke="#F2F2F2" stroke-opacity="0.9" stroke-width="1.34759"/>
<rect x="687.947" y="344.311" width="67.3797" height="67.3797" stroke="#F2F2F2" stroke-opacity="0.9" stroke-width="1.34759"/>
<rect x="687.947" y="413.037" width="67.3797" height="67.3797" stroke="#F2F2F2" stroke-opacity="0.9" stroke-width="1.34759"/>
<rect x="687.947" y="481.764" width="67.3797" height="67.3797" stroke="#F2F2F2" stroke-opacity="0.9" stroke-width="1.34759"/>
<rect x="687.947" y="550.49" width="67.3797" height="67.3797" stroke="#F2F2F2" stroke-opacity="0.9" stroke-width="1.34759"/>
<rect x="687.947" y="619.221" width="67.3797" height="67.3797" stroke="#F2F2F2" stroke-opacity="0.9" stroke-width="1.34759"/>
<rect x="756.674" y="0.673797" width="67.3797" height="67.3797" stroke="#F2F2F2" stroke-opacity="0.9" stroke-width="1.34759"/>
<rect x="756.674" y="69.4004" width="67.3797" height="67.3797" stroke="#F2F2F2" stroke-opacity="0.9" stroke-width="1.34759"/>
<rect x="756.674" y="138.127" width="67.3797" height="67.3797" stroke="#F2F2F2" stroke-opacity="0.9" stroke-width="1.34759"/>
<rect x="756.674" y="206.857" width="67.3797" height="67.3797" stroke="#F2F2F2" stroke-opacity="0.9" stroke-width="1.34759"/>
<rect x="756.674" y="275.584" width="67.3797" height="67.3797" stroke="#F2F2F2" stroke-opacity="0.9" stroke-width="1.34759"/>
<rect x="756.674" y="344.311" width="67.3797" height="67.3797" stroke="#F2F2F2" stroke-opacity="0.9" stroke-width="1.34759"/>
<rect x="756.674" y="413.037" width="67.3797" height="67.3797" stroke="#F2F2F2" stroke-opacity="0.9" stroke-width="1.34759"/>
<rect x="756" y="481.09" width="68.7273" height="68.7273" fill="#F2F2F2"/>
<rect x="756.674" y="481.764" width="67.3797" height="67.3797" stroke="#F2F2F2" stroke-opacity="0.9" stroke-width="1.34759"/>
<rect x="756.674" y="550.49" width="67.3797" height="67.3797" stroke="#F2F2F2" stroke-opacity="0.9" stroke-width="1.34759"/>
<rect x="756.674" y="619.221" width="67.3797" height="67.3797" stroke="#F2F2F2" stroke-opacity="0.9" stroke-width="1.34759"/>
<rect x="825.4" y="0.673797" width="67.3797" height="67.3797" stroke="#F2F2F2" stroke-opacity="0.9" stroke-width="1.34759"/>
<rect x="825.4" y="69.4004" width="67.3797" height="67.3797" stroke="#F2F2F2" stroke-opacity="0.9" stroke-width="1.34759"/>
<rect x="825.4" y="138.127" width="67.3797" height="67.3797" stroke="#F2F2F2" stroke-opacity="0.9" stroke-width="1.34759"/>
<rect x="825.4" y="206.857" width="67.3797" height="67.3797" stroke="#F2F2F2" stroke-opacity="0.9" stroke-width="1.34759"/>
<rect x="825.4" y="275.584" width="67.3797" height="67.3797" stroke="#F2F2F2" stroke-opacity="0.9" stroke-width="1.34759"/>
<rect x="824.727" y="343.637" width="68.7273" height="68.7273" fill="#F2F2F2"/>
<rect x="825.4" y="344.311" width="67.3797" height="67.3797" stroke="#F2F2F2" stroke-opacity="0.9" stroke-width="1.34759"/>
<rect x="825.4" y="413.037" width="67.3797" height="67.3797" stroke="#F2F2F2" stroke-opacity="0.9" stroke-width="1.34759"/>
<rect x="825.4" y="481.764" width="67.3797" height="67.3797" stroke="#F2F2F2" stroke-opacity="0.9" stroke-width="1.34759"/>
<rect x="825.4" y="550.49" width="67.3797" height="67.3797" stroke="#F2F2F2" stroke-opacity="0.9" stroke-width="1.34759"/>
<rect x="825.4" y="619.221" width="67.3797" height="67.3797" stroke="#F2F2F2" stroke-opacity="0.9" stroke-width="1.34759"/>
<rect x="894.129" y="0.673797" width="67.3797" height="67.3797" stroke="#F2F2F2" stroke-opacity="0.9" stroke-width="1.34759"/>
<rect x="894.129" y="69.4004" width="67.3797" height="67.3797" stroke="#F2F2F2" stroke-opacity="0.9" stroke-width="1.34759"/>
<rect x="894.129" y="138.127" width="67.3797" height="67.3797" stroke="#F2F2F2" stroke-opacity="0.9" stroke-width="1.34759"/>
<rect x="894.129" y="206.857" width="67.3797" height="67.3797" stroke="#F2F2F2" stroke-opacity="0.9" stroke-width="1.34759"/>
<rect x="894.129" y="275.584" width="67.3797" height="67.3797" stroke="#F2F2F2" stroke-opacity="0.9" stroke-width="1.34759"/>
<rect x="894.129" y="344.311" width="67.3797" height="67.3797" stroke="#F2F2F2" stroke-opacity="0.9" stroke-width="1.34759"/>
<rect x="894.129" y="413.037" width="67.3797" height="67.3797" stroke="#F2F2F2" stroke-opacity="0.9" stroke-width="1.34759"/>
<rect x="894.129" y="481.764" width="67.3797" height="67.3797" stroke="#F2F2F2" stroke-opacity="0.9" stroke-width="1.34759"/>
<rect x="894.129" y="550.49" width="67.3797" height="67.3797" stroke="#F2F2F2" stroke-opacity="0.9" stroke-width="1.34759"/>
<rect x="894.129" y="619.221" width="67.3797" height="67.3797" stroke="#F2F2F2" stroke-opacity="0.9" stroke-width="1.34759"/>
<rect x="962.855" y="0.673797" width="67.3797" height="67.3797" stroke="#F2F2F2" stroke-opacity="0.9" stroke-width="1.34759"/>
<rect x="962.855" y="69.4004" width="67.3797" height="67.3797" stroke="#F2F2F2" stroke-opacity="0.9" stroke-width="1.34759"/>
<rect x="962.182" y="137.453" width="68.7273" height="68.7273" fill="#F2F2F2"/>
<rect x="962.855" y="138.127" width="67.3797" height="67.3797" stroke="#F2F2F2" stroke-opacity="0.9" stroke-width="1.34759"/>
<rect x="962.855" y="206.857" width="67.3797" height="67.3797" stroke="#F2F2F2" stroke-opacity="0.9" stroke-width="1.34759"/>
<rect x="962.855" y="275.584" width="67.3797" height="67.3797" stroke="#F2F2F2" stroke-opacity="0.9" stroke-width="1.34759"/>
<rect x="962.855" y="344.311" width="67.3797" height="67.3797" stroke="#F2F2F2" stroke-opacity="0.9" stroke-width="1.34759"/>
<rect x="962.855" y="413.037" width="67.3797" height="67.3797" stroke="#F2F2F2" stroke-opacity="0.9" stroke-width="1.34759"/>
<rect x="962.855" y="481.764" width="67.3797" height="67.3797" stroke="#F2F2F2" stroke-opacity="0.9" stroke-width="1.34759"/>
<rect x="962.855" y="550.49" width="67.3797" height="67.3797" stroke="#F2F2F2" stroke-opacity="0.9" stroke-width="1.34759"/>
<rect x="962.855" y="619.221" width="67.3797" height="67.3797" stroke="#F2F2F2" stroke-opacity="0.9" stroke-width="1.34759"/>
<rect x="1031.58" y="0.673797" width="67.3797" height="67.3797" stroke="#F2F2F2" stroke-opacity="0.9" stroke-width="1.34759"/>
<rect x="1031.58" y="69.4004" width="67.3797" height="67.3797" stroke="#F2F2F2" stroke-opacity="0.9" stroke-width="1.34759"/>
<rect x="1031.58" y="138.127" width="67.3797" height="67.3797" stroke="#F2F2F2" stroke-opacity="0.9" stroke-width="1.34759"/>
<rect x="1031.58" y="206.857" width="67.3797" height="67.3797" stroke="#F2F2F2" stroke-opacity="0.9" stroke-width="1.34759"/>
<rect x="1031.58" y="275.584" width="67.3797" height="67.3797" stroke="#F2F2F2" stroke-opacity="0.9" stroke-width="1.34759"/>
<rect x="1031.58" y="344.311" width="67.3797" height="67.3797" stroke="#F2F2F2" stroke-opacity="0.9" stroke-width="1.34759"/>
<rect x="1031.58" y="413.037" width="67.3797" height="67.3797" stroke="#F2F2F2" stroke-opacity="0.9" stroke-width="1.34759"/>
<rect x="1030.91" y="481.09" width="68.7273" height="68.7273" fill="#F2F2F2"/>
<rect x="1031.58" y="481.764" width="67.3797" height="67.3797" stroke="#F2F2F2" stroke-opacity="0.9" stroke-width="1.34759"/>
<rect x="1031.58" y="550.49" width="67.3797" height="67.3797" stroke="#F2F2F2" stroke-opacity="0.9" stroke-width="1.34759"/>
<rect x="1031.58" y="619.221" width="67.3797" height="67.3797" stroke="#F2F2F2" stroke-opacity="0.9" stroke-width="1.34759"/>
<rect x="1100.31" y="0.673797" width="67.3797" height="67.3797" stroke="#F2F2F2" stroke-opacity="0.9" stroke-width="1.34759"/>
<rect x="1100.31" y="69.4004" width="67.3797" height="67.3797" stroke="#F2F2F2" stroke-opacity="0.9" stroke-width="1.34759"/>
<rect x="1100.31" y="138.127" width="67.3797" height="67.3797" stroke="#F2F2F2" stroke-opacity="0.9" stroke-width="1.34759"/>
<rect x="1100.31" y="206.857" width="67.3797" height="67.3797" stroke="#F2F2F2" stroke-opacity="0.9" stroke-width="1.34759"/>
<rect x="1100.31" y="275.584" width="67.3797" height="67.3797" stroke="#F2F2F2" stroke-opacity="0.9" stroke-width="1.34759"/>
<rect x="1100.31" y="344.311" width="67.3797" height="67.3797" stroke="#F2F2F2" stroke-opacity="0.9" stroke-width="1.34759"/>
<rect x="1100.31" y="413.037" width="67.3797" height="67.3797" stroke="#F2F2F2" stroke-opacity="0.9" stroke-width="1.34759"/>
<rect x="1100.31" y="481.764" width="67.3797" height="67.3797" stroke="#F2F2F2" stroke-opacity="0.9" stroke-width="1.34759"/>
<rect x="1100.31" y="550.49" width="67.3797" height="67.3797" stroke="#F2F2F2" stroke-opacity="0.9" stroke-width="1.34759"/>
<rect x="1100.31" y="619.221" width="67.3797" height="67.3797" stroke="#F2F2F2" stroke-opacity="0.9" stroke-width="1.34759"/>
<rect x="1169.04" y="0.673797" width="67.3797" height="67.3797" stroke="#F2F2F2" stroke-opacity="0.9" stroke-width="1.34759"/>
<rect x="1169.04" y="69.4004" width="67.3797" height="67.3797" stroke="#F2F2F2" stroke-opacity="0.9" stroke-width="1.34759"/>
<rect x="1169.04" y="138.127" width="67.3797" height="67.3797" stroke="#F2F2F2" stroke-opacity="0.9" stroke-width="1.34759"/>
<rect x="1169.04" y="206.857" width="67.3797" height="67.3797" stroke="#F2F2F2" stroke-opacity="0.9" stroke-width="1.34759"/>
<rect x="1169.04" y="275.584" width="67.3797" height="67.3797" stroke="#F2F2F2" stroke-opacity="0.9" stroke-width="1.34759"/>
<rect x="1169.04" y="344.311" width="67.3797" height="67.3797" stroke="#F2F2F2" stroke-opacity="0.9" stroke-width="1.34759"/>
<rect x="1169.04" y="413.037" width="67.3797" height="67.3797" stroke="#F2F2F2" stroke-opacity="0.9" stroke-width="1.34759"/>
<rect x="1169.04" y="481.764" width="67.3797" height="67.3797" stroke="#F2F2F2" stroke-opacity="0.9" stroke-width="1.34759"/>
<rect x="1169.04" y="550.49" width="67.3797" height="67.3797" stroke="#F2F2F2" stroke-opacity="0.9" stroke-width="1.34759"/>
<rect x="1169.04" y="619.221" width="67.3797" height="67.3797" stroke="#F2F2F2" stroke-opacity="0.9" stroke-width="1.34759"/>
<rect x="1237.76" y="0.673797" width="67.3797" height="67.3797" stroke="#F2F2F2" stroke-opacity="0.9" stroke-width="1.34759"/>
<rect x="1237.76" y="69.4004" width="67.3797" height="67.3797" stroke="#F2F2F2" stroke-opacity="0.9" stroke-width="1.34759"/>
<rect x="1237.76" y="138.127" width="67.3797" height="67.3797" stroke="#F2F2F2" stroke-opacity="0.9" stroke-width="1.34759"/>
<rect x="1237.76" y="206.857" width="67.3797" height="67.3797" stroke="#F2F2F2" stroke-opacity="0.9" stroke-width="1.34759"/>
<rect x="1237.76" y="275.584" width="67.3797" height="67.3797" stroke="#F2F2F2" stroke-opacity="0.9" stroke-width="1.34759"/>
<rect x="1237.76" y="344.311" width="67.3797" height="67.3797" stroke="#F2F2F2" stroke-opacity="0.9" stroke-width="1.34759"/>
<rect x="1237.76" y="413.037" width="67.3797" height="67.3797" stroke="#F2F2F2" stroke-opacity="0.9" stroke-width="1.34759"/>
<rect x="1237.76" y="481.764" width="67.3797" height="67.3797" stroke="#F2F2F2" stroke-opacity="0.9" stroke-width="1.34759"/>
<rect x="1237.76" y="550.49" width="67.3797" height="67.3797" stroke="#F2F2F2" stroke-opacity="0.9" stroke-width="1.34759"/>
<rect x="1237.76" y="619.221" width="67.3797" height="67.3797" stroke="#F2F2F2" stroke-opacity="0.9" stroke-width="1.34759"/>
<rect x="1306.49" y="0.673797" width="67.3797" height="67.3797" stroke="#F2F2F2" stroke-opacity="0.9" stroke-width="1.34759"/>
<rect x="1306.49" y="69.4004" width="67.3797" height="67.3797" stroke="#F2F2F2" stroke-opacity="0.9" stroke-width="1.34759"/>
<rect x="1306.49" y="138.127" width="67.3797" height="67.3797" stroke="#F2F2F2" stroke-opacity="0.9" stroke-width="1.34759"/>
<rect x="1306.49" y="206.857" width="67.3797" height="67.3797" stroke="#F2F2F2" stroke-opacity="0.9" stroke-width="1.34759"/>
<rect x="1306.49" y="275.584" width="67.3797" height="67.3797" stroke="#F2F2F2" stroke-opacity="0.9" stroke-width="1.34759"/>
<rect x="1306.49" y="344.311" width="67.3797" height="67.3797" stroke="#F2F2F2" stroke-opacity="0.9" stroke-width="1.34759"/>
<rect x="1306.49" y="413.037" width="67.3797" height="67.3797" stroke="#F2F2F2" stroke-opacity="0.9" stroke-width="1.34759"/>
<rect x="1306.49" y="481.764" width="67.3797" height="67.3797" stroke="#F2F2F2" stroke-opacity="0.9" stroke-width="1.34759"/>
<rect x="1306.49" y="550.49" width="67.3797" height="67.3797" stroke="#F2F2F2" stroke-opacity="0.9" stroke-width="1.34759"/>
<rect x="1306.49" y="619.221" width="67.3797" height="67.3797" stroke="#F2F2F2" stroke-opacity="0.9" stroke-width="1.34759"/>
<rect x="1375.22" y="0.673797" width="67.3797" height="67.3797" stroke="#F2F2F2" stroke-opacity="0.9" stroke-width="1.34759"/>
<rect x="1375.22" y="69.4004" width="67.3797" height="67.3797" stroke="#F2F2F2" stroke-opacity="0.9" stroke-width="1.34759"/>
<rect x="1374.54" y="137.453" width="68.7273" height="68.7273" fill="#F2F2F2"/>
<rect x="1375.22" y="138.127" width="67.3797" height="67.3797" stroke="#F2F2F2" stroke-opacity="0.9" stroke-width="1.34759"/>
<rect x="1375.22" y="206.857" width="67.3797" height="67.3797" stroke="#F2F2F2" stroke-opacity="0.9" stroke-width="1.34759"/>
<rect x="1375.22" y="275.584" width="67.3797" height="67.3797" stroke="#F2F2F2" stroke-opacity="0.9" stroke-width="1.34759"/>
<rect x="1375.22" y="344.311" width="67.3797" height="67.3797" stroke="#F2F2F2" stroke-opacity="0.9" stroke-width="1.34759"/>
<rect x="1375.22" y="413.037" width="67.3797" height="67.3797" stroke="#F2F2F2" stroke-opacity="0.9" stroke-width="1.34759"/>
<rect x="1375.22" y="481.764" width="67.3797" height="67.3797" stroke="#F2F2F2" stroke-opacity="0.9" stroke-width="1.34759"/>
<rect x="1375.22" y="550.49" width="67.3797" height="67.3797" stroke="#F2F2F2" stroke-opacity="0.9" stroke-width="1.34759"/>
<rect x="1375.22" y="619.221" width="67.3797" height="67.3797" stroke="#F2F2F2" stroke-opacity="0.9" stroke-width="1.34759"/>
<rect x="1443.95" y="0.673797" width="67.3797" height="67.3797" stroke="#F2F2F2" stroke-opacity="0.9" stroke-width="1.34759"/>
<rect x="1443.95" y="69.4004" width="67.3797" height="67.3797" stroke="#F2F2F2" stroke-opacity="0.9" stroke-width="1.34759"/>
<rect x="1443.95" y="138.127" width="67.3797" height="67.3797" stroke="#F2F2F2" stroke-opacity="0.9" stroke-width="1.34759"/>
<rect x="1443.95" y="206.857" width="67.3797" height="67.3797" stroke="#F2F2F2" stroke-opacity="0.9" stroke-width="1.34759"/>
<rect x="1443.95" y="275.584" width="67.3797" height="67.3797" stroke="#F2F2F2" stroke-opacity="0.9" stroke-width="1.34759"/>
<rect x="1443.95" y="344.311" width="67.3797" height="67.3797" stroke="#F2F2F2" stroke-opacity="0.9" stroke-width="1.34759"/>
<rect x="1443.95" y="413.037" width="67.3797" height="67.3797" stroke="#F2F2F2" stroke-opacity="0.9" stroke-width="1.34759"/>
<rect x="1443.95" y="481.764" width="67.3797" height="67.3797" stroke="#F2F2F2" stroke-opacity="0.9" stroke-width="1.34759"/>
<rect x="1443.95" y="550.49" width="67.3797" height="67.3797" stroke="#F2F2F2" stroke-opacity="0.9" stroke-width="1.34759"/>
<rect x="1443.95" y="619.221" width="67.3797" height="67.3797" stroke="#F2F2F2" stroke-opacity="0.9" stroke-width="1.34759"/>
</svg>
