<svg width="54" height="53" viewBox="0 0 54 53" fill="none" xmlns="http://www.w3.org/2000/svg">
<path d="M20.375 24.8438C29.5222 24.8438 36.9375 21.5069 36.9375 17.3906C36.9375 13.2744 29.5222 9.9375 20.375 9.9375C11.2278 9.9375 3.8125 13.2744 3.8125 17.3906C3.8125 21.5069 11.2278 24.8438 20.375 24.8438Z" stroke="black" stroke-width="3.78571" stroke-linecap="round" stroke-linejoin="round"/>
<path d="M3.8125 17.3906V25.6719C3.8125 29.7918 11.2242 33.125 20.375 33.125C29.5258 33.125 36.9375 29.7918 36.9375 25.6719V17.3906" stroke="black" stroke-width="3.78571" stroke-linecap="round" stroke-linejoin="round"/>
<path d="M13.75 24.2227V32.5039" stroke="black" stroke-width="3.78571" stroke-linecap="round" stroke-linejoin="round"/>
<path d="M36.9375 20.0195C44.4941 20.7234 50.1875 23.7254 50.1875 27.3277C50.1875 31.4477 42.7758 34.7809 33.625 34.7809C29.5672 34.7809 25.8406 34.1184 22.9629 33.0418" stroke="black" stroke-width="3.78571" stroke-linecap="round" stroke-linejoin="round"/>
<path d="M17.0625 32.9801V35.6094C17.0625 39.7293 24.4742 43.0625 33.625 43.0625C42.7758 43.0625 50.1875 39.7293 50.1875 35.6094V27.3281" stroke="black" stroke-width="3.78571" stroke-linecap="round" stroke-linejoin="round"/>
<path d="M40.25 34.1602V42.4414" stroke="black" stroke-width="3.78571" stroke-linecap="round" stroke-linejoin="round"/>
<path d="M27 24.2227V42.4414" stroke="black" stroke-width="3.78571" stroke-linecap="round" stroke-linejoin="round"/>
</svg>
