<?xml version="1.0" encoding="utf-8" ?>
<svg xmlns="http://www.w3.org/2000/svg">

  <symbol viewBox="0 0 128 46" fill="none" id="cruize-header-icon">
    <g clip-path="url(#clip0_2625_8448)">
    <path
        fill-rule="evenodd"
        clip-rule="evenodd"
        d="M20.2077 10.0167C17.9259 10.3073 15.1895 11.2241 13.3453 12.316C13.1807 12.4135 13.215 12.6623 13.3996 12.711L13.4435 12.7226C13.7422 12.8015 14.3352 12.8084 14.7616 12.7378C15.5272 12.6111 15.5385 12.6171 15.6859 13.2121C15.8672 13.9442 15.6825 13.9558 17.4561 13.1024C19.1759 12.2751 20.0182 12.1436 20.2582 12.6652C20.6111 13.432 20.319 13.7022 18.0414 14.7158C17.1233 15.1243 16.3447 15.5209 16.3113 15.597C16.2158 15.8145 16.9989 19.4103 17.142 19.4107C17.2124 19.4109 18.0543 18.9617 19.0129 18.4127C22.8888 16.1926 28.4738 13.8929 31.9126 13.1012C32.7681 12.9041 33.407 12.716 33.3321 12.683C33.2573 12.65 31.3306 12.0362 29.0505 11.3189C24.5166 9.89235 22.9711 9.66469 20.2077 10.0167ZM39.442 12.9519C31.1626 13.9664 20.1308 18.6697 9.73889 25.6157C8.65277 26.3416 8 27.5663 8 28.8782V29.0908C8 30.3628 8.05465 31.4036 8.12151 31.4036C8.18837 31.4036 8.84318 30.9633 9.57649 30.425C11.9279 28.6991 14.1538 27.8568 16.8719 27.664C18.8677 27.5224 20.3548 27.7999 23.5436 28.9083C29.4397 30.9583 33.2254 31.2891 36.8323 30.0697C37.4263 29.8688 37.8983 29.4088 38.1168 28.8181L39.8843 24.0396C41.0462 20.8977 42.4523 17.0869 43.0086 15.571L43.3255 14.7077C43.6597 13.7969 42.98 12.8326 42.0149 12.8487C40.9121 12.8673 39.7542 12.9137 39.442 12.9519ZM27.7978 19.8042C28.592 21.0399 27.3264 22.8219 26.4489 21.7036C26.1062 21.2673 26.0836 20.2759 26.4045 19.7766C26.7191 19.2873 27.4752 19.3023 27.7978 19.8042ZM24.9231 21.5257C25.13 22.1653 24.8252 23.1745 24.3772 23.3328C23.518 23.6367 22.8574 22.7482 23.1302 21.6559C23.4076 20.5452 24.5782 20.4602 24.9231 21.5257ZM21.7046 22.5001C22.6311 23.8045 21.3494 25.6367 20.3942 24.3732C20.2137 24.1342 20.0658 23.7252 20.0658 23.4646C20.0658 22.8787 20.6593 22.0094 21.0594 22.0094C21.2226 22.0094 21.513 22.2303 21.7046 22.5001ZM15.8728 28.8276C14.1717 29.0797 12.1297 29.8754 10.6577 30.8598C9.43796 31.6755 7.5794 33.2202 8.21292 32.8917C12.8959 30.4632 17.303 30.1798 22.1133 31.9977C22.978 32.3244 24.1646 32.7768 24.7502 33.0029C30.4191 35.191 36.5592 33.9667 40.4711 29.8682C41.3165 28.9824 41.6112 28.4441 40.9093 29.0681C40.2744 29.6323 37.9524 30.8216 36.6431 31.2533C35.5081 31.6275 34.9024 31.688 32.2735 31.6909C28.7876 31.6947 27.6242 31.464 23.2457 29.9014C21.023 29.1082 18.2434 28.5234 17.2268 28.6352C17.1096 28.648 16.5004 28.7345 15.8728 28.8276ZM13.82 32.4228C12.121 32.6404 10.395 33.3935 9.04944 34.5037C8.26786 35.1488 8.25807 35.2668 9.01792 34.8895C11.9444 33.4355 15.3915 33.4724 19.1431 34.9972C22.4516 36.3422 25.1858 36.4843 27.802 35.4478L28.0452 35.3513C28.2284 35.2787 28.2073 35.0113 28.0149 34.9687C27.6637 34.8909 26.45 34.7284 25.3179 34.6075C22.686 34.3264 21.9273 34.157 19.0721 33.2125C16.5332 32.3729 15.464 32.212 13.82 32.4228ZM19.1431 32.4064C19.7623 32.6997 23.0695 33.6367 23.1392 33.5385C23.234 33.405 20.3546 32.4384 19.498 32.3161C18.8531 32.2239 18.7913 32.2398 19.1431 32.4064Z"
        fill="black"
      />
    <path
        d="M57.1992 31.4411C62.2367 31.4411 64.959 28.7793 64.959 24.5305V24.3002H60.8883V24.4282C60.8883 26.8852 59.8705 27.7298 57.1738 27.7298C54.2988 27.7298 53.103 26.6805 53.103 22.6109C53.103 18.5414 54.2988 17.492 57.1738 17.492C59.8705 17.492 60.8883 18.3366 60.8883 20.7937V20.9217H64.959V20.6913C64.959 16.4426 62.2367 13.7808 57.1992 13.7808C52.0853 13.7808 49.0322 17.2616 49.0322 22.6109C49.0322 27.9603 52.0853 31.4411 57.1992 31.4411ZM69.6004 31.1852V23.1228C69.6004 21.7151 70.1602 21.3056 71.3305 21.3056C72.5263 21.3056 72.9588 21.7407 72.9588 23.1228V23.8139H76.7497V22.6366C76.7497 20.0515 75.7575 18.0551 73.086 18.0551C71.2797 18.0551 70.1348 19.0789 69.4987 20.3842H69.3461V18.311H65.8096V31.1852H69.6004ZM81.7441 31.4411C83.983 31.4411 85.3314 30.4173 86.0438 28.9329H86.1711V31.1852H89.7076V18.311H85.9166V25.6056C85.9166 27.5508 85.1279 28.1394 83.2961 28.1394C81.3879 28.1394 80.7773 27.4995 80.7773 25.7079V18.311H76.9865V26.4757C76.9865 29.2144 78.3858 31.4411 81.7441 31.4411ZM94.4873 16.8521V14.0367H90.6964L90.7472 16.8521H94.4873ZM94.5636 31.1852V18.311H90.7472V31.1852H94.5636ZM107.28 31.1852V27.8323H101.556L99.9782 27.8578L99.9528 27.6019L101.556 26.271L106.898 21.536V18.311H95.1696V21.664H99.9018L101.708 21.6127L101.734 21.8943L99.9018 23.43L94.788 28.2418V31.1852H107.28ZM113.074 31.4411C116.737 31.4411 119.078 29.8286 119.078 27.09V26.8341H115.313V26.9877C115.313 27.7811 114.651 28.1137 113.125 28.1137C111.038 28.1137 110.326 27.3972 110.25 25.6056H119.027C119.104 25.1703 119.205 24.4282 119.205 23.7115C119.205 20.3586 116.941 18.0551 113.099 18.0551C109.105 18.0551 106.662 20.6657 106.662 24.7864C106.662 28.856 108.672 31.4411 113.074 31.4411ZM112.972 21.2032C114.753 21.2032 115.618 21.9455 115.542 23.2764H110.275C110.428 21.9199 111.14 21.2032 112.972 21.2032Z"
        fill="black"
      />
    </g>
    <defs>
    <clipPath id="clip0_2625_8448">
    <rect
          width="112"
          height="28.9032"
          fill="white"
          transform="translate(8 8.54834)"
        />
    </clipPath>
    </defs>
  </symbol>

  <symbol viewBox="0 0 17 16" fill="none" id="arrow-left-icon">
    <path
      d="M2.88855 8L13.8885 8"
      stroke="currentColor"
      stroke-width="2"
      stroke-linecap="round"
      stroke-linejoin="round"
    />
    <path
      d="M9.38855 12.5L13.8886 8L9.38855 3.5"
      stroke="currentColor"
      stroke-width="2"
      stroke-linecap="round"
      stroke-linejoin="round"
    />
  </symbol>

  <symbol viewBox="0 0 29 29" fill="none" id="wbtc-icon">
  <path
      d="M28.5652 18.0079C26.6285 25.7758 18.7605 30.5028 10.9916 28.5662C3.22642 26.6295 -1.50103 18.7615 0.436081 10.994C2.37183 3.22516 10.2394 -1.50275 18.006 0.433911C25.7744 2.37057 30.5014 10.2395 28.5647 18.0079H28.5652Z"
      fill="#F7931A"
    />
  <path
      fill-rule="evenodd"
      clip-rule="evenodd"
      d="M18.8667 12.8163C19.0622 11.5075 18.0657 10.8038 16.703 10.3344L17.145 8.5614L16.0655 8.29243L15.6351 10.0188C15.3517 9.94805 15.0603 9.88135 14.7707 9.81526L15.2041 8.07756L14.1255 7.80859L13.6832 9.58102C13.4483 9.52754 13.2178 9.47467 12.994 9.41903L12.9952 9.41349L11.5068 9.04186L11.2197 10.1946C11.2197 10.1946 12.0205 10.3781 12.0036 10.3895C12.4407 10.4986 12.52 10.7879 12.5064 11.0172L12.0029 13.037C12.0331 13.0447 12.0721 13.0558 12.1151 13.073L12.0014 13.0447L11.2953 15.8743C11.2418 16.0071 11.1063 16.2063 10.8007 16.1307C10.8115 16.1463 10.0163 15.9348 10.0163 15.9348L9.48047 17.1706L10.8853 17.5207C11.0439 17.5604 11.2006 17.6013 11.3555 17.6417L11.3556 17.6418C11.4559 17.6679 11.5554 17.6939 11.6544 17.7193L11.2077 19.5129L12.2857 19.7819L12.7284 18.0076C13.0226 18.0875 13.3084 18.1613 13.5882 18.2308L13.1474 19.9967L14.2266 20.2657L14.6733 18.4758C16.5136 18.824 17.8978 18.6836 18.4797 17.0193C18.9491 15.6791 18.4567 14.906 17.4884 14.4016C18.1935 14.2383 18.7247 13.7745 18.8664 12.8163H18.8667ZM16.4005 16.2742C16.0941 17.5043 14.1683 16.9953 13.288 16.7627C13.2091 16.7418 13.1387 16.7232 13.0785 16.7083L13.6712 14.3324C13.7447 14.3508 13.8345 14.3709 13.9363 14.3937C14.847 14.5981 16.7135 15.017 16.4008 16.2742H16.4005ZM14.1193 13.2913C14.8539 13.4872 16.4551 13.9144 16.734 12.797C17.0192 11.6538 15.4622 11.3092 14.7018 11.141C14.6163 11.1221 14.5409 11.1054 14.4793 11.09L13.942 13.2448C13.9928 13.2575 14.0525 13.2734 14.1193 13.2913Z"
      fill="white"
    />
  </symbol>

  <symbol viewBox="0 0 29 29" fill="none" id="weth-icon">
    <path
      d="M14.5 29C22.5081 29 29 22.5081 29 14.5C29 6.49187 22.5081 0 14.5 0C6.49187 0 0 6.49187 0 14.5C0 22.5081 6.49187 29 14.5 29Z"
      fill="#F04086"
    />
    <mask
      id="mask0_2725_6614"
      style="mask-type:luminance"
      maskUnits="userSpaceOnUse"
      x="0"
      y="0"
      width="29"
      height="29"
    >
    <path
        d="M14.5 29C22.5081 29 29 22.5081 29 14.5C29 6.49187 22.5081 0 14.5 0C6.49187 0 0 6.49187 0 14.5C0 22.5081 6.49187 29 14.5 29Z"
        fill="white"
      />
    </mask>
    <g mask="url(#mask0_2725_6614)">
    <path
        fill-rule="evenodd"
        clip-rule="evenodd"
        d="M11.1543 13.7493L15.0742 11.2012L18.962 13.7651L15.0571 6.69336L11.1543 13.7493ZM11.3046 14.4854L15.0792 11.998L18.8047 14.4669L15.0814 16.9569L11.3046 14.4854ZM11.1543 15.1978C12.53 16.0999 13.9655 17.0442 15.0742 17.7749L18.962 15.1978C17.5543 17.7802 16.3815 19.9299 15.0742 22.3091L14.2724 20.8559L14.2721 20.8553C13.1952 18.9034 12.0847 16.8906 11.1543 15.1978Z"
        fill="white"
      />
    <path
        fill-rule="evenodd"
        clip-rule="evenodd"
        d="M15.0586 6.69336L15.0732 11.2012L18.9624 13.7651L15.0586 6.69336ZM15.0762 11.9981L18.8263 14.467L15.0781 16.957L15.0762 11.9981ZM15.0735 17.7749L18.9627 15.1978C17.7564 17.7802 15.0735 22.3091 15.0735 22.3091V17.7749Z"
        fill="#CACACA"
      />
    </g>
  </symbol>

  <symbol viewBox="0 0 29 29" fill="none" id="usdc-icon">
    <path
      d="M14.5 29C22.5081 29 29 22.5081 29 14.5C29 6.49187 22.5081 0 14.5 0C6.49187 0 0 6.49187 0 14.5C0 22.5081 6.49187 29 14.5 29Z"
      fill="#2775CA"
    />
    <g clip-path="url(#clip0_2725_6626)">
    <path
        d="M9.2052 12.6811C8.05934 15.7234 9.63979 19.1608 12.7216 20.2671C12.8401 20.3461 12.9587 20.5041 12.9587 20.6226V21.1759C12.9587 21.2548 12.9587 21.2944 12.9191 21.3338C12.8797 21.4919 12.7216 21.5709 12.5635 21.4919C10.351 20.7807 8.652 19.0817 7.94081 16.8692C6.7555 13.1158 8.81007 9.12515 12.5635 7.93984C12.6031 7.90039 12.682 7.90039 12.7216 7.90039C12.8797 7.93984 12.9587 8.05837 12.9587 8.21644V8.76955C12.9587 8.96717 12.8797 9.0857 12.7216 9.16469C11.1017 9.75734 9.79786 11.0216 9.2052 12.6811Z"
        fill="white"
      />
    <path
        d="M16.5541 8.09791C16.5936 7.93984 16.7516 7.86085 16.9097 7.93984C19.0827 8.65102 20.8212 10.35 21.5324 12.6021C22.7177 16.3555 20.6632 20.3461 16.9097 21.5315C16.8702 21.5709 16.7912 21.5709 16.7516 21.5709C16.5936 21.5314 16.5146 21.4129 16.5146 21.2548V20.7017C16.5146 20.5041 16.5936 20.3856 16.7516 20.3066C18.3715 19.7139 19.6754 18.4496 20.268 16.7902C21.4139 13.7479 19.8334 10.3105 16.7516 9.20423C16.6331 9.12515 16.5146 8.96717 16.5146 8.8091V8.25598C16.5146 8.1769 16.5146 8.13745 16.5541 8.09791Z"
        fill="white"
      />
    <path
        d="M14.8542 14.0637C16.5136 14.2613 17.3433 14.7354 17.3433 16.1182C17.3433 17.185 16.5531 18.0147 15.3678 18.2123V19.1606C15.3283 19.3581 15.2098 19.4766 15.0517 19.4766H14.459C14.2615 19.4371 14.143 19.3186 14.143 19.1606V18.2123C12.8392 18.0147 12.207 17.3035 12.049 16.3158V16.2763C12.049 16.1182 12.1675 15.9997 12.3255 15.9997H12.9972C13.1158 15.9997 13.2343 16.0788 13.2737 16.2367C13.3923 16.8294 13.7479 17.2641 14.7752 17.2641C15.5258 17.2641 16.079 16.8295 16.079 16.1973C16.079 15.5651 15.7234 15.328 14.6171 15.1305C12.9577 14.9329 12.1675 14.4193 12.1675 13.1155C12.1675 12.1277 12.9182 11.3375 14.1035 11.1794V10.2707C14.143 10.0731 14.2615 9.95459 14.4196 9.95459H15.0122C15.2098 9.99413 15.3283 10.1127 15.3283 10.2707V11.219C16.237 11.298 16.9482 11.9696 17.1062 12.8389V12.8784C17.1062 13.0364 16.9877 13.1549 16.8296 13.1549H16.1975C16.079 13.1549 15.9605 13.0759 15.9209 12.9574C15.7234 12.3648 15.3283 12.1277 14.6171 12.1277C13.8269 12.1277 13.4318 12.4832 13.4318 13.0364C13.4318 13.5896 13.6689 13.9057 14.8542 14.0637Z"
        fill="white"
      />
    </g>
    <defs>
    <clipPath id="clip0_2725_6626">
    <rect
          width="15.2131"
          height="15.2131"
          fill="white"
          transform="translate(7.13086 7.13086)"
        />
    </clipPath>
    </defs>
  </symbol>

  <symbol viewBox="0 0 149 39" fill="none" id='cruize-footer-icon'>
    <path
      fill-rule="evenodd"
      clip-rule="evenodd"
      d="M15.8755 7.54622C12.9081 7.81379 9.34959 8.65793 6.95127 9.66327L6.37292 9.90564L7.07902 10.0376C7.46741 10.1103 8.23867 10.1165 8.79321 10.0516C9.78875 9.9349 9.80352 9.94042 9.99513 10.4883C10.2309 11.1624 9.9907 11.173 12.2973 10.3872C14.5337 9.62554 15.6291 9.50446 15.9413 9.98477C16.4002 10.6907 16.0203 10.9395 13.0584 11.8727C11.8644 12.2489 10.8519 12.614 10.8085 12.6841C10.6842 12.8843 11.7027 16.195 11.8888 16.1953C11.9803 16.1955 13.0752 15.782 14.3218 15.2765C19.3621 13.2325 26.6251 11.1151 31.0972 10.3861C32.2098 10.2047 33.0405 10.0315 32.9432 10.0011C32.846 9.97078 30.3404 9.40563 27.3752 8.74516C21.4791 7.43175 19.4693 7.22215 15.8755 7.54622ZM40.8888 10.2487C30.122 11.1828 15.7755 15.5131 2.26134 21.9083L0 22.9784V25.108C0 26.2791 0.0710708 27.2374 0.158017 27.2374C0.244963 27.2374 1.09652 26.8319 2.05016 26.3364C5.10805 24.7473 8.00275 23.9718 11.5375 23.7942C14.1329 23.6639 16.0668 23.9193 20.2136 24.94C27.8813 26.8273 32.8044 27.1319 37.4951 26.0092L38.7162 25.7167L41.464 20.4572C42.9751 17.5645 44.8036 14.0558 45.527 12.6602L46.8425 10.1228L44.2348 10.1537C42.8007 10.1708 41.2949 10.2135 40.8888 10.2487ZM25.7461 16.5577C26.7789 17.6953 25.133 19.3361 23.9918 18.3065C23.5464 17.9048 23.5169 16.992 23.9342 16.5323C24.3433 16.0818 25.3265 16.0956 25.7461 16.5577ZM22.0076 18.1427C22.2767 18.7316 21.8804 19.6608 21.2978 19.8065C20.1804 20.0862 19.3213 19.2682 19.6761 18.2625C20.0368 17.2399 21.5592 17.1617 22.0076 18.1427ZM17.8221 19.0398C19.027 20.2408 17.3603 21.9276 16.1181 20.7644C15.8833 20.5443 15.6909 20.1677 15.6909 19.9278C15.6909 19.3884 16.4628 18.5881 16.9831 18.5881C17.1954 18.5881 17.5729 18.7914 17.8221 19.0398ZM10.2383 24.8656C8.02601 25.0977 5.37055 25.8303 3.45625 26.7366C1.86999 27.4876 -0.546968 28.9098 0.276899 28.6074C6.36683 26.3715 12.0981 26.1106 18.3536 27.7843C19.4782 28.0852 21.0213 28.5016 21.7827 28.7098C29.1549 30.7243 37.1399 29.5971 42.2271 25.8237C43.3266 25.008 43.7098 24.5125 42.797 25.087C41.9714 25.6065 38.9518 26.7015 37.249 27.099C35.773 27.4435 34.9853 27.4992 31.5665 27.5018C27.0333 27.5053 25.5203 27.2929 19.8263 25.8542C16.9359 25.124 13.3211 24.5855 11.999 24.6884C11.8467 24.7002 11.0544 24.7799 10.2383 24.8656ZM7.56857 28.1757C5.3591 28.3761 3.11456 29.0693 1.36474 30.0916C0.348339 30.6855 0.335602 30.7942 1.32376 30.4468C5.12946 29.1082 9.61227 29.142 14.4911 30.546C18.7935 31.7843 22.3494 31.9152 25.7516 30.9608L26.8592 30.65L26.0285 30.5197C25.5716 30.4481 23.9933 30.2985 22.5211 30.1871C19.0985 29.9284 18.1118 29.7723 14.3988 28.9028C11.097 28.1297 9.7066 27.9816 7.56857 28.1757ZM14.4911 28.1606C15.2963 28.4306 19.5973 29.2933 19.6879 29.203C19.8112 29.08 16.0666 28.1901 14.9525 28.0774C14.1139 27.9926 14.0336 28.0071 14.4911 28.1606Z"
      fill="black"
    />
    <path
      d="M62.1384 30.32C68.4744 30.32 71.8984 26.992 71.8984 21.68V21.392H66.7784V21.552C66.7784 24.624 65.4984 25.68 62.1064 25.68C58.4904 25.68 56.9864 24.368 56.9864 19.28C56.9864 14.192 58.4904 12.88 62.1064 12.88C65.4984 12.88 66.7784 13.936 66.7784 17.008V17.168H71.8984V16.88C71.8984 11.568 68.4744 8.24 62.1384 8.24C55.7064 8.24 51.8664 12.592 51.8664 19.28C51.8664 25.968 55.7064 30.32 62.1384 30.32ZM79.1602 30V19.92C79.1602 18.16 79.8642 17.648 81.3362 17.648C82.8402 17.648 83.3842 18.192 83.3842 19.92V20.784H88.1522V19.312C88.1522 16.08 86.9042 13.584 83.5442 13.584C81.2722 13.584 79.8322 14.864 79.0322 16.496H78.8402V13.904H74.3922V30H79.1602ZM95.8579 30.32C98.6739 30.32 100.37 29.04 101.266 27.184H101.426V30H105.874V13.904H101.106V23.024C101.106 25.456 100.114 26.192 97.8099 26.192C95.4099 26.192 94.6419 25.392 94.6419 23.152V13.904H89.8739V24.112C89.8739 27.536 91.6339 30.32 95.8579 30.32ZM113.31 12.08V8.56H108.542L108.606 12.08H113.31ZM113.406 30V13.904H108.606V30H113.406ZM130.824 30V25.808H123.624L121.64 25.84L121.608 25.52L123.624 23.856L130.344 17.936V13.904H115.592V18.096H121.544L123.816 18.032L123.848 18.384L121.544 20.304L115.112 26.32V30H130.824ZM139.535 30.32C144.143 30.32 147.087 28.304 147.087 24.88V24.56H142.351V24.752C142.351 25.744 141.519 26.16 139.599 26.16C136.975 26.16 136.079 25.264 135.983 23.024H147.023C147.119 22.48 147.247 21.552 147.247 20.656C147.247 16.464 144.399 13.584 139.567 13.584C134.543 13.584 131.471 16.848 131.471 22C131.471 27.088 133.999 30.32 139.535 30.32ZM139.407 17.52C141.647 17.52 142.735 18.448 142.639 20.112H136.015C136.207 18.416 137.103 17.52 139.407 17.52Z"
      fill="black"
    />
  </symbol>

  <symbol viewBox="0 0 21 17" fill="none" id="discord-icon">
    <path
      d="M17.7682 1.33005C16.4382 0.710046 14.9982 0.260046 13.4982 4.59982e-05C13.485 -0.000374605 13.4719 0.00209348 13.4598 0.00727676C13.4477 0.01246 13.4369 0.0202326 13.4282 0.0300462C13.2482 0.360046 13.0382 0.790046 12.8982 1.12005C11.3072 0.880046 9.68916 0.880046 8.09816 1.12005C7.95816 0.780046 7.74816 0.360046 7.55816 0.0300462C7.54816 0.0100462 7.51816 4.59982e-05 7.48816 4.59982e-05C5.98816 0.260046 4.55816 0.710046 3.21816 1.33005C3.20816 1.33005 3.19816 1.34005 3.18816 1.35005C0.468164 5.42005 -0.281836 9.38004 0.0881641 13.3C0.0881641 13.32 0.0981641 13.34 0.118164 13.35C1.91816 14.67 3.64816 15.47 5.35816 16C5.38816 16.01 5.41816 16 5.42816 15.98C5.82816 15.43 6.18816 14.85 6.49816 14.24C6.51816 14.2 6.49816 14.16 6.45816 14.15C5.88816 13.93 5.34816 13.67 4.81816 13.37C4.77816 13.35 4.77816 13.29 4.80816 13.26C4.91816 13.18 5.02816 13.09 5.13816 13.01C5.15816 12.99 5.18816 12.99 5.20816 13C8.64816 14.57 12.3582 14.57 15.7582 13C15.7782 12.99 15.8082 12.99 15.8282 13.01C15.9382 13.1 16.0482 13.18 16.1582 13.27C16.1982 13.3 16.1982 13.36 16.1482 13.38C15.6282 13.69 15.0782 13.94 14.5082 14.16C14.4682 14.17 14.4582 14.22 14.4682 14.25C14.7882 14.86 15.1482 15.44 15.5382 15.99C15.5682 16 15.5982 16.01 15.6282 16C17.3482 15.47 19.0782 14.67 20.8782 13.35C20.8982 13.34 20.9082 13.32 20.9082 13.3C21.3482 8.77004 20.1782 4.84005 17.8082 1.35005C17.7982 1.34005 17.7882 1.33005 17.7682 1.33005ZM7.01816 10.91C5.98816 10.91 5.12816 9.96005 5.12816 8.79005C5.12816 7.62005 5.96816 6.67005 7.01816 6.67005C8.07817 6.67005 8.91816 7.63005 8.90816 8.79005C8.90816 9.96005 8.06816 10.91 7.01816 10.91ZM13.9882 10.91C12.9582 10.91 12.0982 9.96005 12.0982 8.79005C12.0982 7.62005 12.9382 6.67005 13.9882 6.67005C15.0482 6.67005 15.8882 7.63005 15.8782 8.79005C15.8782 9.96005 15.0482 10.91 13.9882 10.91Z"
      fill="black"
    />
  </symbol>

  <symbol viewBox="0 0 25 20" fill="none" id="twitter-icon">
    <path
      d="M8.05016 19.7507C17.1045 19.7507 22.0583 12.2474 22.0583 5.74259C22.0583 5.53166 22.0536 5.31603 22.0442 5.10509C23.0079 4.40819 23.8395 3.54499 24.5 2.55603C23.6025 2.95533 22.6496 3.21611 21.6739 3.32947C22.7013 2.71364 23.4705 1.7462 23.8391 0.606499C22.8726 1.17929 21.8156 1.58334 20.7134 1.80134C19.9708 1.01229 18.989 0.489849 17.9197 0.314783C16.8504 0.139718 15.7532 0.321783 14.7977 0.832829C13.8423 1.34387 13.0818 2.15544 12.6338 3.14204C12.1859 4.12865 12.0754 5.23535 12.3195 6.29103C10.3625 6.19282 8.44794 5.68444 6.69998 4.79883C4.95203 3.91323 3.40969 2.67017 2.17297 1.15025C1.5444 2.23398 1.35206 3.51638 1.63503 4.73682C1.918 5.95727 2.65506 7.02418 3.69641 7.72072C2.91463 7.6959 2.14998 7.48541 1.46563 7.10666V7.16759C1.46492 8.30488 1.8581 9.40732 2.57831 10.2875C3.29852 11.1677 4.30132 11.7713 5.41625 11.9957C4.69206 12.1939 3.93198 12.2227 3.19484 12.0801C3.50945 13.0582 4.12157 13.9136 4.94577 14.5271C5.76997 15.1405 6.76512 15.4813 7.79234 15.502C6.04842 16.8718 3.89417 17.6149 1.67656 17.6113C1.28329 17.6107 0.890399 17.5866 0.5 17.5392C2.75286 18.9845 5.37353 19.7521 8.05016 19.7507Z"
      fill="black"
    />
  </symbol>

  <symbol viewBox="0 0 25 24" fill="none" id="github-icon">
    <path
      fill-rule="evenodd"
      clip-rule="evenodd"
      d="M12.5 0C5.8724 0 0.5 5.3808 0.5 12.0204C0.5 17.3304 3.938 21.8364 8.7068 23.4252C9.3068 23.5356 9.5252 23.1648 9.5252 22.8456C9.5252 22.5612 9.5156 21.804 9.5096 20.802C6.1712 21.528 5.4668 19.1904 5.4668 19.1904C4.922 17.8008 4.1348 17.4312 4.1348 17.4312C3.0452 16.6872 4.2176 16.7016 4.2176 16.7016C5.4212 16.7856 6.0548 17.94 6.0548 17.94C7.1252 19.776 8.864 19.2456 9.5468 18.9384C9.6572 18.162 9.9668 17.6328 10.31 17.3328C7.646 17.0292 4.844 15.9972 4.844 11.3916C4.844 10.08 5.312 9.006 6.0788 8.166C5.9552 7.8624 5.5436 6.6396 6.1964 4.986C6.1964 4.986 7.2044 4.662 9.4964 6.2172C10.4753 5.95022 11.4853 5.81423 12.5 5.8128C13.52 5.8176 14.546 5.9508 15.5048 6.2172C17.7956 4.662 18.8012 4.9848 18.8012 4.9848C19.4564 6.6396 19.0436 7.8624 18.9212 8.166C19.6892 9.006 20.1548 10.08 20.1548 11.3916C20.1548 16.0092 17.348 17.0256 14.6756 17.3232C15.1064 17.694 15.4892 18.4272 15.4892 19.5492C15.4892 21.1548 15.4748 22.452 15.4748 22.8456C15.4748 23.1672 15.6908 23.5416 16.3004 23.424C18.69 22.6225 20.7672 21.0904 22.2386 19.0441C23.7099 16.9977 24.501 14.5408 24.5 12.0204C24.5 5.3808 19.1264 0 12.5 0Z"
      fill="black"
    />
  </symbol>

  <symbol viewBox="0 0 25 24" fill="none" id="linkedin-icon">
    <path
      d="M22.7234 0H2.27187C1.29219 0 0.5 0.773438 0.5 1.72969V22.2656C0.5 23.2219 1.29219 24 2.27187 24H22.7234C23.7031 24 24.5 23.2219 24.5 22.2703V1.72969C24.5 0.773438 23.7031 0 22.7234 0ZM7.62031 20.4516H4.05781V8.99531H7.62031V20.4516ZM5.83906 7.43438C4.69531 7.43438 3.77188 6.51094 3.77188 5.37187C3.77188 4.23281 4.69531 3.30937 5.83906 3.30937C6.97813 3.30937 7.90156 4.23281 7.90156 5.37187C7.90156 6.50625 6.97813 7.43438 5.83906 7.43438ZM20.9516 20.4516H17.3937V14.8828C17.3937 13.5562 17.3703 11.8453 15.5422 11.8453C13.6906 11.8453 13.4094 13.2937 13.4094 14.7891V20.4516H9.85625V8.99531H13.2687V10.5609H13.3156C13.7891 9.66094 14.9516 8.70938 16.6813 8.70938C20.2859 8.70938 20.9516 11.0813 20.9516 14.1656V20.4516Z"
      fill="black"
    />
  </symbol>

  <symbol viewBox="0 0 5 10" fill="none" id="chevron-left-icon">
    <path
      d="M4 1.97473L1 4.99994L4 8.02515"
      stroke="currentColor"
      stroke-opacity="0.4"
      stroke-width="2"
      stroke-linecap="round"
      stroke-linejoin="round"
    />
  </symbol>

  <symbol viewBox="0 0 61 61" fill="none" id="big-wbtc-icon">
    <path
      opacity="0.2"
      d="M60.0852 37.8787C56.0115 54.2181 39.4614 64.1611 23.1201 60.0875C6.78641 56.0138 -3.15754 39.4638 0.917071 23.1253C4.98882 6.78396 21.5379 -3.16095 37.8745 0.912708C54.2149 4.98636 64.1579 21.5383 60.0842 37.8787H60.0852Z"
      fill="#F7931A"
    />
    <path
      fill-rule="evenodd"
      clip-rule="evenodd"
      d="M39.6849 26.9574C40.0961 24.2042 37.9999 22.7242 35.1336 21.7368L36.0634 18.0073L33.7926 17.4416L32.8874 21.0728C32.2912 20.9241 31.6782 20.7838 31.0692 20.6447L31.9808 16.9896L29.712 16.4238L28.7815 20.152C28.2875 20.0395 27.8026 19.9283 27.3319 19.8113L27.3345 19.7997L24.2037 19.0179L23.5998 21.4426C23.5998 21.4426 25.2841 21.8286 25.2486 21.8526C26.168 22.0821 26.3348 22.6905 26.3064 23.1729L25.2473 27.4216C25.3107 27.4378 25.3928 27.4611 25.4833 27.4973L25.2441 27.4378L23.7589 33.3896C23.6463 33.6689 23.3612 34.0879 22.7185 33.9289C22.7411 33.9618 21.0684 33.517 21.0684 33.517L19.9414 36.1163L22.8963 36.8527C23.2298 36.9363 23.5593 37.0223 23.8852 37.1073L23.8854 37.1073L23.8858 37.1074C24.0967 37.1625 24.3061 37.2171 24.5141 37.2704L23.5746 41.0432L25.8422 41.609L26.7732 37.8769C27.392 38.045 27.9933 38.2002 28.5817 38.3463L27.6545 42.061L29.9247 42.6267L30.8642 38.8617C34.7353 39.5942 37.6469 39.2988 38.8709 35.7981C39.8582 32.979 38.8224 31.3529 36.7856 30.2918C38.2689 29.9485 39.3862 28.9728 39.6843 26.9574H39.6849ZM34.4974 34.2308C33.8529 36.8182 29.802 35.7476 27.9502 35.2582L27.95 35.2582C27.7843 35.2144 27.6362 35.1752 27.5097 35.1438L28.7563 30.1463C28.911 30.1849 29.0999 30.2273 29.314 30.2754C31.2297 30.7053 35.1558 31.5863 34.498 34.2308H34.4974ZM29.699 27.9563C31.2442 28.3686 34.6122 29.2671 35.1989 26.9166C35.7987 24.512 32.5237 23.7873 30.9242 23.4333C30.7444 23.3935 30.5858 23.3584 30.4562 23.3261L29.326 27.8587C29.4329 27.8853 29.5584 27.9188 29.699 27.9563Z"
      fill="#F7931A"
    />
  </symbol>

  <symbol viewBox="0 0 61 61" fill="none" id="big-weth-icon">
    <path
      opacity="0.1"
      d="M30.5 61C47.3447 61 61 47.3447 61 30.5C61 13.6553 47.3447 0 30.5 0C13.6553 0 0 13.6553 0 30.5C0 47.3447 13.6553 61 30.5 61Z"
      fill="#F04086"
    />
    <mask
      id="mask0_2760_12021"
      style="mask-type:luminance"
      maskUnits="userSpaceOnUse"
      x="0"
      y="0"
      width="61"
      height="61"
    >
    <path
        d="M30.5 61C47.3447 61 61 47.3447 61 30.5C61 13.6553 47.3447 0 30.5 0C13.6553 0 0 13.6553 0 30.5C0 47.3447 13.6553 61 30.5 61Z"
        fill="white"
      />
    </mask>
    <g mask="url(#mask0_2760_12021)">
    <path
        fill-rule="evenodd"
        clip-rule="evenodd"
        d="M23.4629 28.9199L31.7081 23.5602L39.886 28.9532L31.6722 14.0781L23.4629 28.9199ZM23.7791 30.4682L31.7188 25.2361L39.5551 30.4293L31.7233 35.667L23.7791 30.4682ZM23.4629 31.9668C26.3566 33.8643 29.3761 35.8506 31.7081 37.3875L39.886 31.9668C36.9249 37.3986 34.458 41.9205 31.7081 46.9251L30.0219 43.8686C27.7565 39.7624 25.4202 35.5279 23.4629 31.9668Z"
        fill="#F04086"
      />
    <path
        fill-rule="evenodd"
        clip-rule="evenodd"
        d="M31.6738 14.0781L31.7046 23.5602L39.8854 28.9532L31.6738 14.0781ZM31.7109 25.2363L39.599 30.4296L31.7148 35.6672L31.7109 25.2363ZM31.7051 37.3875L39.8858 31.9668C37.3484 37.3986 31.7051 46.9251 31.7051 46.9251V37.3875Z"
        fill="#DC0057"
      />
    </g>
  </symbol>

  <symbol viewBox="0 0 61 61" fill="none" id="big-usdc-icon">
    <path
      opacity="0.1"
      d="M30.5 61C47.3447 61 61 47.3447 61 30.5C61 13.6553 47.3447 0 30.5 0C13.6553 0 0 13.6553 0 30.5C0 47.3447 13.6553 61 30.5 61Z"
      fill="#2775CA"
    />
    <mask
      id="mask0_2760_12033"
      style="mask-type:luminance"
      maskUnits="userSpaceOnUse"
      x="0"
      y="0"
      width="61"
      height="61"
    >
    <path
        d="M30.5 61C47.3447 61 61 47.3447 61 30.5C61 13.6553 47.3447 0 30.5 0C13.6553 0 0 13.6553 0 30.5C0 47.3447 13.6553 61 30.5 61Z"
        fill="white"
      />
    </mask>
    <g mask="url(#mask0_2760_12033)">
    </g>
    <path
      d="M19.365 26.6751C16.9547 33.0745 20.2791 40.3049 26.7615 42.6318C27.0108 42.7981 27.2601 43.1304 27.2601 43.3798V44.5434C27.2601 44.7095 27.2601 44.7927 27.177 44.8757C27.094 45.2082 26.7615 45.3743 26.429 45.2082C21.775 43.7122 18.2013 40.1385 16.7054 35.4846C14.2121 27.5894 18.5338 19.1954 26.429 16.7021C26.5122 16.6191 26.6783 16.6191 26.7615 16.6191C27.094 16.7021 27.2601 16.9514 27.2601 17.2839V18.4474C27.2601 18.8631 27.094 19.1124 26.7615 19.2785C23.3541 20.5251 20.6116 23.1845 19.365 26.6751Z"
      fill="#2775CA"
    />
    <path
      d="M34.823 17.0346C34.906 16.7021 35.2385 16.536 35.571 16.7021C40.1418 18.1981 43.7987 21.7718 45.2946 26.5089C47.7879 34.4041 43.4662 42.7981 35.571 45.2914C35.4878 45.3743 35.3217 45.3743 35.2385 45.3743C34.906 45.2914 34.7399 45.042 34.7399 44.7095V43.5461C34.7399 43.1304 34.906 42.8811 35.2385 42.715C38.6459 41.4683 41.3884 38.809 42.635 35.3184C45.0453 28.919 41.7209 21.6886 35.2385 19.3617C34.9892 19.1954 34.7399 18.8631 34.7399 18.5306V17.3671C34.7399 17.2008 34.7399 17.1178 34.823 17.0346Z"
      fill="#2775CA"
    />
    <path
      d="M31.2473 29.5834C34.7377 29.9989 36.483 30.9962 36.483 33.9049C36.483 36.1488 34.8209 37.8941 32.3277 38.3098V40.3044C32.2445 40.7199 31.9952 40.9692 31.6627 40.9692H30.4161C30.0007 40.886 29.7513 40.6367 29.7513 40.3044V38.3098C27.0088 37.8941 25.679 36.3982 25.3467 34.3206V34.2374C25.3467 33.9049 25.5961 33.6556 25.9284 33.6556H27.3413C27.5906 33.6556 27.84 33.8219 27.9229 34.1542C28.1722 35.4009 28.9202 36.3152 31.0811 36.3152C32.66 36.3152 33.8236 35.4011 33.8236 34.0713C33.8236 32.7415 33.0757 32.2428 30.7486 31.8273C27.2581 31.4117 25.5961 30.3314 25.5961 27.5888C25.5961 25.5111 27.175 23.849 29.6682 23.5165V21.605C29.7513 21.1894 30.0007 20.94 30.3332 20.94H31.5798C31.9952 21.0232 32.2445 21.2725 32.2445 21.605V23.5996C34.1559 23.7658 35.6519 25.1786 35.9844 27.007V27.0902C35.9844 27.4225 35.735 27.6718 35.4025 27.6718H34.073C33.8236 27.6718 33.5743 27.5056 33.4911 27.2563C33.0757 26.0097 32.2445 25.5111 30.7486 25.5111C29.0866 25.5111 28.2554 26.2588 28.2554 27.4225C28.2554 28.5861 28.7541 29.2509 31.2473 29.5834Z"
      fill="#2775CA"
    />
  </symbol>

  <symbol viewBox="0 0 24 25" fill="none" id="dropdown-expand-icon">
    <path
      d="M12 17.7062C12.3906 17.7062 12.7188 17.5577 13.0234 17.2452L18.8047 11.3312C19.0391 11.0968 19.1562 10.8156 19.1562 10.4718C19.1562 9.77649 18.6016 9.21399 17.9141 9.21399C17.5781 9.21399 17.2578 9.35461 17 9.61243L12.0078 14.7687L7.00781 9.61243C6.75 9.35461 6.42969 9.21399 6.08594 9.21399C5.39844 9.21399 4.84375 9.77649 4.84375 10.4718C4.84375 10.8077 4.96094 11.089 5.19531 11.3312L10.9766 17.2452C11.2969 17.5656 11.6172 17.7062 12 17.7062Z"
      fill="currentColor"
    />
  </symbol>

  <symbol viewBox="0 0 790 244" fill="none" id="yield-info-chart-icon">
    <path d="M35.0371 211L35.0371 9" stroke="#DADDF2" stroke-width="0.872242" />
    <path d="M678.039 211L678.039 9" stroke="#DADDF2" stroke-width="0.872242" />
    <path d="M567.465 211L567.465 9" stroke="#DADDF2" stroke-width="0.872242" />
    <path d="M455.691 211L455.691 9" stroke="#DADDF2" stroke-width="0.872242" />
    <path d="M345.121 211L345.121 9" stroke="#DADDF2" stroke-width="0.872242" />
    <path d="M233.346 211L233.346 9" stroke="#DADDF2" stroke-width="0.872242" />
    <path d="M122 211L122 9" stroke="#DADDF2" stroke-width="0.872242" />
    <path d="M35.0371 140H789.812" stroke="#DADDF2" stroke-width="0.872242" />
    <path d="M35.0371 211H789.812" stroke="#DADDF2" stroke-width="0.872242" />
    <path d="M35.0371 62H789.812" stroke="#DADDF2" stroke-width="0.872242" />
    <path
      d="M289.024 229V219.62H287.694C287.302 220.46 286.784 220.782 285.902 220.782H285.538V221.86H287.512V229H289.024ZM291.117 230.652C291.999 230.652 292.503 230.204 292.503 229.266V226.83H290.585V229H291.439V229.294C291.439 229.602 291.313 229.658 291.075 229.658H290.613V230.652H291.117ZM296.215 229V219.62H294.885C294.493 220.46 293.975 220.782 293.093 220.782H292.729V221.86H294.703V229H296.215ZM302.145 229.14C304.665 229.14 306.205 227.278 306.205 224.31C306.205 221.342 304.665 219.48 302.145 219.48C299.625 219.48 298.099 221.342 298.099 224.31C298.099 227.278 299.625 229.14 302.145 229.14ZM302.145 227.684C300.479 227.684 299.709 226.788 299.709 224.31C299.709 221.832 300.479 220.936 302.145 220.936C303.811 220.936 304.595 221.832 304.595 224.31C304.595 226.788 303.811 227.684 302.145 227.684ZM311.975 229.14C314.495 229.14 316.035 227.278 316.035 224.31C316.035 221.342 314.495 219.48 311.975 219.48C309.455 219.48 307.929 221.342 307.929 224.31C307.929 227.278 309.455 229.14 311.975 229.14ZM311.975 227.684C310.309 227.684 309.539 226.788 309.539 224.31C309.539 221.832 310.309 220.936 311.975 220.936C313.641 220.936 314.425 221.832 314.425 224.31C314.425 226.788 313.641 227.684 311.975 227.684Z"
      fill="#7A8C9C"
    />
    <path
      d="M508.5 229V219.62H507.17C506.778 220.46 506.26 220.782 505.378 220.782H505.014V221.86H506.988V229H508.5ZM510.594 230.652C511.476 230.652 511.98 230.204 511.98 229.266V226.83H510.062V229H510.916V229.294C510.916 229.602 510.79 229.658 510.552 229.658H510.09V230.652H510.594ZM516.687 229.14C518.857 229.14 520.313 228.258 520.313 226.452C520.313 225.108 519.529 224.268 518.241 224.086V224.03C519.431 223.862 519.977 223.064 519.977 221.986C519.977 220.348 518.717 219.48 516.603 219.48C514.251 219.48 512.991 220.698 512.991 222.49V222.616H514.475V222.504C514.475 221.328 514.965 220.866 516.589 220.866C517.905 220.866 518.465 221.244 518.465 222.224C518.465 223.204 517.989 223.512 516.757 223.512H515.091V224.772H516.967C518.269 224.772 518.787 225.122 518.787 226.298C518.787 227.39 518.199 227.754 516.715 227.754C514.867 227.754 514.475 227.292 514.475 226.116V225.906H512.991V226.13C512.991 227.922 514.013 229.14 516.687 229.14ZM525.668 229.14C528.188 229.14 529.728 227.278 529.728 224.31C529.728 221.342 528.188 219.48 525.668 219.48C523.148 219.48 521.622 221.342 521.622 224.31C521.622 227.278 523.148 229.14 525.668 229.14ZM525.668 227.684C524.002 227.684 523.232 226.788 523.232 224.31C523.232 221.832 524.002 220.936 525.668 220.936C527.334 220.936 528.118 221.832 528.118 224.31C528.118 226.788 527.334 227.684 525.668 227.684ZM535.498 229.14C538.018 229.14 539.558 227.278 539.558 224.31C539.558 221.342 538.018 219.48 535.498 219.48C532.978 219.48 531.452 221.342 531.452 224.31C531.452 227.278 532.978 229.14 535.498 229.14ZM535.498 227.684C533.832 227.684 533.062 226.788 533.062 224.31C533.062 221.832 533.832 220.936 535.498 220.936C537.164 220.936 537.948 221.832 537.948 224.31C537.948 226.788 537.164 227.684 535.498 227.684Z"
      fill="#7A8C9C"
    />
    <path
      d="M740.235 229V225.976H742.713C744.673 225.976 746.115 224.814 746.115 222.798C746.115 220.782 744.673 219.62 742.713 219.62H738.723V229H740.235ZM742.895 220.978C744.127 220.978 744.617 221.454 744.617 222.798C744.617 224.142 744.127 224.618 742.895 224.618H740.235V220.978H742.895ZM748.629 229V224.464C748.629 223.54 748.965 223.19 749.875 223.19C750.757 223.19 751.023 223.526 751.023 224.45V224.73H752.535V224.268C752.535 222.966 751.975 221.902 750.519 221.902C749.497 221.902 748.853 222.462 748.573 223.106H748.503V222H747.117V229H748.629ZM754.834 221.16V219.62H753.322L753.336 221.16H754.834ZM754.848 229V222H753.336V229H754.848ZM759.29 229.154C761.166 229.154 762.44 228.006 762.44 226.354V226.228H760.942V226.312C760.942 227.334 760.41 227.782 759.248 227.782C757.904 227.782 757.386 227.04 757.386 225.528C757.386 224.016 757.904 223.26 759.248 223.26C760.41 223.26 760.942 223.722 760.942 224.744V224.828H762.44V224.702C762.44 223.036 761.18 221.902 759.346 221.902C757.162 221.902 755.888 223.358 755.888 225.528C755.888 227.684 757.12 229.154 759.29 229.154ZM766.74 229.14C768.616 229.14 769.862 228.216 769.862 226.788V226.662H768.364V226.774C768.364 227.404 767.916 227.796 766.754 227.796C765.298 227.796 764.836 227.152 764.78 225.878H769.834C769.876 225.668 769.918 225.29 769.918 224.926C769.918 223.022 768.602 221.902 766.726 221.902C764.654 221.902 763.366 223.358 763.366 225.514C763.366 227.684 764.444 229.14 766.74 229.14ZM766.698 223.176C767.888 223.176 768.532 223.68 768.476 224.87H764.794C764.878 223.792 765.382 223.176 766.698 223.176ZM774.858 229.238C773.444 227.726 772.926 226.648 772.926 224.31C772.926 221.972 773.444 220.894 774.858 219.382L774.088 218.612C772.744 219.816 771.288 221.58 771.288 224.31C771.288 227.04 772.744 228.804 774.088 230.008L774.858 229.238ZM780.168 230.4V229.126C782.212 228.972 783.136 227.824 783.136 226.452C783.136 225.038 782.366 224.156 780.602 223.792L779.006 223.456C777.718 223.176 777.34 222.938 777.34 222.084C777.34 221.258 777.9 220.866 779.286 220.866C780.966 220.866 781.47 221.468 781.47 222.616V222.77H782.954V222.602C782.954 221.132 782.142 219.816 780.168 219.536V218.22H778.768V219.508C776.738 219.69 775.828 220.88 775.828 222.154C775.828 223.638 776.696 224.422 778.306 224.73L779.902 225.052C781.344 225.346 781.624 225.654 781.624 226.508C781.624 227.376 781.12 227.754 779.734 227.754C777.774 227.754 777.284 227.166 777.284 226.004V225.85H775.8V226.088C775.8 227.67 776.71 228.832 778.768 229.084V230.4H780.168ZM783.689 219.382C785.103 220.894 785.621 221.972 785.621 224.31C785.621 226.648 785.103 227.726 783.689 229.238L784.459 230.008C785.803 228.804 787.259 227.04 787.259 224.31C787.259 221.58 785.803 219.816 784.459 218.612L783.689 219.382Z"
      fill="#7A8C9C"
    />
    <path
      d="M4.802 215.14C7.322 215.14 8.862 213.278 8.862 210.31C8.862 207.342 7.322 205.48 4.802 205.48C2.282 205.48 0.756 207.342 0.756 210.31C0.756 213.278 2.282 215.14 4.802 215.14ZM4.802 213.684C3.136 213.684 2.366 212.788 2.366 210.31C2.366 207.832 3.136 206.936 4.802 206.936C6.468 206.936 7.252 207.832 7.252 210.31C7.252 212.788 6.468 213.684 4.802 213.684ZM12.2293 210.128C13.6993 210.128 14.5253 209.134 14.5253 207.804C14.5253 206.474 13.6993 205.48 12.2293 205.48C10.7733 205.48 9.93333 206.474 9.93333 207.804C9.93333 209.134 10.7733 210.128 12.2293 210.128ZM12.1873 215L19.3553 205.62H17.8853L10.7033 215H12.1873ZM12.2293 209.064C11.4033 209.064 11.1093 208.714 11.1093 207.804C11.1093 206.894 11.4033 206.544 12.2293 206.544C13.0553 206.544 13.3633 206.894 13.3633 207.804C13.3633 208.714 13.0553 209.064 12.2293 209.064ZM17.8153 215.14C19.2853 215.14 20.1113 214.16 20.1113 212.816C20.1113 211.486 19.2853 210.492 17.8153 210.492C16.3593 210.492 15.5193 211.486 15.5193 212.816C15.5193 214.16 16.3593 215.14 17.8153 215.14ZM17.8153 214.076C16.9893 214.076 16.6953 213.726 16.6953 212.816C16.6953 211.906 16.9893 211.556 17.8153 211.556C18.6413 211.556 18.9493 211.906 18.9493 212.816C18.9493 213.726 18.6413 214.076 17.8153 214.076Z"
      fill="#7A8C9C"
    />
    <path
      d="M7.742 138V136.642H2.408C2.408 135.872 3.136 135.424 4.088 134.934L5.46 134.234C6.664 133.618 7.714 132.792 7.714 131.252C7.714 129.698 6.748 128.48 4.438 128.48C1.848 128.48 0.756 129.936 0.756 131.686V131.91H2.268V131.714C2.268 130.426 2.618 129.866 4.326 129.866C5.88 129.866 6.202 130.44 6.202 131.308C6.202 132.106 5.796 132.526 4.788 133.058L3.346 133.8C2.03 134.472 0.826 135.284 0.826 137.062V138H7.742ZM11.2723 133.128C12.7423 133.128 13.5683 132.134 13.5683 130.804C13.5683 129.474 12.7423 128.48 11.2723 128.48C9.8163 128.48 8.9763 129.474 8.9763 130.804C8.9763 132.134 9.8163 133.128 11.2723 133.128ZM11.2303 138L18.3983 128.62H16.9283L9.7463 138H11.2303ZM11.2723 132.064C10.4463 132.064 10.1523 131.714 10.1523 130.804C10.1523 129.894 10.4463 129.544 11.2723 129.544C12.0983 129.544 12.4063 129.894 12.4063 130.804C12.4063 131.714 12.0983 132.064 11.2723 132.064ZM16.8583 138.14C18.3283 138.14 19.1543 137.16 19.1543 135.816C19.1543 134.486 18.3283 133.492 16.8583 133.492C15.4023 133.492 14.5623 134.486 14.5623 135.816C14.5623 137.16 15.4023 138.14 16.8583 138.14ZM16.8583 137.076C16.0323 137.076 15.7383 136.726 15.7383 135.816C15.7383 134.906 16.0323 134.556 16.8583 134.556C17.6843 134.556 17.9923 134.906 17.9923 135.816C17.9923 136.726 17.6843 137.076 16.8583 137.076Z"
      fill="#7A8C9C"
    />
    <path
      d="M1.708 22L2.66 19.564H7.014L7.966 22H9.604L5.95 12.62H3.78L0.126 22H1.708ZM4.172 15.728L4.788 13.992H4.9L5.502 15.728L6.482 18.206H3.192L4.172 15.728ZM11.7433 22V18.976H14.2213C16.1813 18.976 17.6233 17.814 17.6233 15.798C17.6233 13.782 16.1813 12.62 14.2213 12.62H10.2313V22H11.7433ZM14.4033 13.978C15.6353 13.978 16.1253 14.454 16.1253 15.798C16.1253 17.142 15.6353 17.618 14.4033 17.618H11.7433V13.978H14.4033ZM22.5296 22V18.542L26.1836 12.62H24.4756L22.7116 15.518L21.8576 16.988H21.7596L20.8916 15.518L19.1136 12.62H17.3916L21.0316 18.514V22H22.5296Z"
      fill="#7A8C9C"
    />
    <path
      d="M35 140H122H301.5V62.5H523V140H789"
      stroke="#396AF4"
      stroke-width="2"
    />
    <path
      d="M301 63V210M523 63V210"
      stroke="#396AF4"
      stroke-width="2"
      stroke-dasharray="4 4"
    />
    <path
      d="M301 210V63H523V210H301Z"
      fill="url(#paint0_linear_2760_8522)"
      fill-opacity="0.3"
    />
    <path
      d="M35 211V140H301V211H35Z"
      fill="url(#paint1_linear_2760_8522)"
      fill-opacity="0.3"
    />
    <path
      d="M523 211V140H789V211H523Z"
      fill="url(#paint2_linear_2760_8522)"
      fill-opacity="0.3"
    />
    <path
      d="M386.808 50V40.62H385.478C385.086 41.46 384.568 41.782 383.686 41.782H383.322V42.86H385.296V50H386.808ZM392.182 50.14C394.772 50.14 395.934 48.88 395.934 46.934C395.934 45.044 394.716 43.924 392.714 43.924C391.482 43.924 390.6 44.302 390.11 44.708H390.068L390.292 41.978H395.43V40.62H388.962L388.64 45.604L389.97 45.814C390.432 45.548 391.104 45.226 392.252 45.226C393.834 45.226 394.436 45.716 394.436 46.976C394.436 48.292 393.89 48.754 392.238 48.754C390.684 48.754 389.984 48.39 389.984 47.34V47.256H388.486V47.34C388.486 49.062 389.746 50.14 392.182 50.14ZM399.12 50V47.83H397.202V50H399.12ZM404.372 50.14C406.892 50.14 408.432 48.278 408.432 45.31C408.432 42.342 406.892 40.48 404.372 40.48C401.852 40.48 400.326 42.342 400.326 45.31C400.326 48.278 401.852 50.14 404.372 50.14ZM404.372 48.684C402.706 48.684 401.936 47.788 401.936 45.31C401.936 42.832 402.706 41.936 404.372 41.936C406.038 41.936 406.822 42.832 406.822 45.31C406.822 47.788 406.038 48.684 404.372 48.684ZM414.202 50.14C416.722 50.14 418.262 48.278 418.262 45.31C418.262 42.342 416.722 40.48 414.202 40.48C411.682 40.48 410.156 42.342 410.156 45.31C410.156 48.278 411.682 50.14 414.202 50.14ZM414.202 48.684C412.536 48.684 411.766 47.788 411.766 45.31C411.766 42.832 412.536 41.936 414.202 41.936C415.868 41.936 416.652 42.832 416.652 45.31C416.652 47.788 415.868 48.684 414.202 48.684ZM421.63 45.128C423.1 45.128 423.926 44.134 423.926 42.804C423.926 41.474 423.1 40.48 421.63 40.48C420.174 40.48 419.334 41.474 419.334 42.804C419.334 44.134 420.174 45.128 421.63 45.128ZM421.588 50L428.756 40.62H427.286L420.104 50H421.588ZM421.63 44.064C420.804 44.064 420.51 43.714 420.51 42.804C420.51 41.894 420.804 41.544 421.63 41.544C422.456 41.544 422.764 41.894 422.764 42.804C422.764 43.714 422.456 44.064 421.63 44.064ZM427.216 50.14C428.686 50.14 429.512 49.16 429.512 47.816C429.512 46.486 428.686 45.492 427.216 45.492C425.76 45.492 424.92 46.486 424.92 47.816C424.92 49.16 425.76 50.14 427.216 50.14ZM427.216 49.076C426.39 49.076 426.096 48.726 426.096 47.816C426.096 46.906 426.39 46.556 427.216 46.556C428.042 46.556 428.35 46.906 428.35 47.816C428.35 48.726 428.042 49.076 427.216 49.076Z"
      fill="#7A8C9C"
    />
    <path
      d="M638.742 129V127.642H633.408C633.408 126.872 634.136 126.424 635.088 125.934L636.46 125.234C637.664 124.618 638.714 123.792 638.714 122.252C638.714 120.698 637.748 119.48 635.438 119.48C632.848 119.48 631.756 120.936 631.756 122.686V122.91H633.268V122.714C633.268 121.426 633.618 120.866 635.326 120.866C636.88 120.866 637.202 121.44 637.202 122.308C637.202 123.106 636.796 123.526 635.788 124.058L634.346 124.8C633.03 125.472 631.826 126.284 631.826 128.062V129H638.742ZM641.87 129V126.83H639.952V129H641.87ZM647.122 129.14C649.642 129.14 651.182 127.278 651.182 124.31C651.182 121.342 649.642 119.48 647.122 119.48C644.602 119.48 643.076 121.342 643.076 124.31C643.076 127.278 644.602 129.14 647.122 129.14ZM647.122 127.684C645.456 127.684 644.686 126.788 644.686 124.31C644.686 121.832 645.456 120.936 647.122 120.936C648.788 120.936 649.572 121.832 649.572 124.31C649.572 126.788 648.788 127.684 647.122 127.684ZM656.952 129.14C659.472 129.14 661.012 127.278 661.012 124.31C661.012 121.342 659.472 119.48 656.952 119.48C654.432 119.48 652.906 121.342 652.906 124.31C652.906 127.278 654.432 129.14 656.952 129.14ZM656.952 127.684C655.286 127.684 654.516 126.788 654.516 124.31C654.516 121.832 655.286 120.936 656.952 120.936C658.618 120.936 659.402 121.832 659.402 124.31C659.402 126.788 658.618 127.684 656.952 127.684ZM664.38 124.128C665.85 124.128 666.676 123.134 666.676 121.804C666.676 120.474 665.85 119.48 664.38 119.48C662.924 119.48 662.084 120.474 662.084 121.804C662.084 123.134 662.924 124.128 664.38 124.128ZM664.338 129L671.506 119.62H670.036L662.854 129H664.338ZM664.38 123.064C663.554 123.064 663.26 122.714 663.26 121.804C663.26 120.894 663.554 120.544 664.38 120.544C665.206 120.544 665.514 120.894 665.514 121.804C665.514 122.714 665.206 123.064 664.38 123.064ZM669.966 129.14C671.436 129.14 672.262 128.16 672.262 126.816C672.262 125.486 671.436 124.492 669.966 124.492C668.51 124.492 667.67 125.486 667.67 126.816C667.67 128.16 668.51 129.14 669.966 129.14ZM669.966 128.076C669.14 128.076 668.846 127.726 668.846 126.816C668.846 125.906 669.14 125.556 669.966 125.556C670.792 125.556 671.1 125.906 671.1 126.816C671.1 127.726 670.792 128.076 669.966 128.076Z"
      fill="#7A8C9C"
    />
    <path
      d="M150.742 129V127.642H145.408C145.408 126.872 146.136 126.424 147.088 125.934L148.46 125.234C149.664 124.618 150.714 123.792 150.714 122.252C150.714 120.698 149.748 119.48 147.438 119.48C144.848 119.48 143.756 120.936 143.756 122.686V122.91H145.268V122.714C145.268 121.426 145.618 120.866 147.326 120.866C148.88 120.866 149.202 121.44 149.202 122.308C149.202 123.106 148.796 123.526 147.788 124.058L146.346 124.8C145.03 125.472 143.826 126.284 143.826 128.062V129H150.742ZM153.87 129V126.83H151.952V129H153.87ZM159.122 129.14C161.642 129.14 163.182 127.278 163.182 124.31C163.182 121.342 161.642 119.48 159.122 119.48C156.602 119.48 155.076 121.342 155.076 124.31C155.076 127.278 156.602 129.14 159.122 129.14ZM159.122 127.684C157.456 127.684 156.686 126.788 156.686 124.31C156.686 121.832 157.456 120.936 159.122 120.936C160.788 120.936 161.572 121.832 161.572 124.31C161.572 126.788 160.788 127.684 159.122 127.684ZM168.952 129.14C171.472 129.14 173.012 127.278 173.012 124.31C173.012 121.342 171.472 119.48 168.952 119.48C166.432 119.48 164.906 121.342 164.906 124.31C164.906 127.278 166.432 129.14 168.952 129.14ZM168.952 127.684C167.286 127.684 166.516 126.788 166.516 124.31C166.516 121.832 167.286 120.936 168.952 120.936C170.618 120.936 171.402 121.832 171.402 124.31C171.402 126.788 170.618 127.684 168.952 127.684ZM176.38 124.128C177.85 124.128 178.676 123.134 178.676 121.804C178.676 120.474 177.85 119.48 176.38 119.48C174.924 119.48 174.084 120.474 174.084 121.804C174.084 123.134 174.924 124.128 176.38 124.128ZM176.338 129L183.506 119.62H182.036L174.854 129H176.338ZM176.38 123.064C175.554 123.064 175.26 122.714 175.26 121.804C175.26 120.894 175.554 120.544 176.38 120.544C177.206 120.544 177.514 120.894 177.514 121.804C177.514 122.714 177.206 123.064 176.38 123.064ZM181.966 129.14C183.436 129.14 184.262 128.16 184.262 126.816C184.262 125.486 183.436 124.492 181.966 124.492C180.51 124.492 179.67 125.486 179.67 126.816C179.67 128.16 180.51 129.14 181.966 129.14ZM181.966 128.076C181.14 128.076 180.846 127.726 180.846 126.816C180.846 125.906 181.14 125.556 181.966 125.556C182.792 125.556 183.1 125.906 183.1 126.816C183.1 127.726 182.792 128.076 181.966 128.076Z"
      fill="#7A8C9C"
    />
    <path
      d="M3.808 61V51.62H2.478C2.086 52.46 1.568 52.782 0.686 52.782H0.322V53.86H2.296V61H3.808ZM9.18247 61.14C11.7725 61.14 12.9345 59.88 12.9345 57.934C12.9345 56.044 11.7165 54.924 9.71447 54.924C8.48247 54.924 7.60047 55.302 7.11047 55.708H7.06847L7.29247 52.978H12.4305V51.62H5.96247L5.64047 56.604L6.97047 56.814C7.43247 56.548 8.10447 56.226 9.25247 56.226C10.8345 56.226 11.4365 56.716 11.4365 57.976C11.4365 59.292 10.8905 59.754 9.23847 59.754C7.68447 59.754 6.98447 59.39 6.98447 58.34V58.256H5.48647V58.34C5.48647 60.062 6.74647 61.14 9.18247 61.14ZM16.2489 56.128C17.7189 56.128 18.5449 55.134 18.5449 53.804C18.5449 52.474 17.7189 51.48 16.2489 51.48C14.7929 51.48 13.9529 52.474 13.9529 53.804C13.9529 55.134 14.7929 56.128 16.2489 56.128ZM16.2069 61L23.3749 51.62H21.9049L14.7229 61H16.2069ZM16.2489 55.064C15.4229 55.064 15.1289 54.714 15.1289 53.804C15.1289 52.894 15.4229 52.544 16.2489 52.544C17.0749 52.544 17.3829 52.894 17.3829 53.804C17.3829 54.714 17.0749 55.064 16.2489 55.064ZM21.8349 61.14C23.3049 61.14 24.1309 60.16 24.1309 58.816C24.1309 57.486 23.3049 56.492 21.8349 56.492C20.3789 56.492 19.5389 57.486 19.5389 58.816C19.5389 60.16 20.3789 61.14 21.8349 61.14ZM21.8349 60.076C21.0089 60.076 20.7149 59.726 20.7149 58.816C20.7149 57.906 21.0089 57.556 21.8349 57.556C22.6609 57.556 22.9689 57.906 22.9689 58.816C22.9689 59.726 22.6609 60.076 21.8349 60.076Z"
      fill="#7A8C9C"
    />
    <defs>
    <linearGradient
        id="paint0_linear_2760_8522"
        x1="412"
        y1="63"
        x2="412"
        y2="210"
        gradientUnits="userSpaceOnUse"
      >
    <stop offset="0.203119" stop-color="#396AF4" />
    <stop offset="1" stop-color="#396AF4" stop-opacity="0" />
    </linearGradient>
    <linearGradient
        id="paint1_linear_2760_8522"
        x1="168"
        y1="140"
        x2="168"
        y2="211"
        gradientUnits="userSpaceOnUse"
      >
    <stop offset="0.203119" stop-color="#396AF4" />
    <stop offset="1" stop-color="#396AF4" stop-opacity="0" />
    </linearGradient>
    <linearGradient
        id="paint2_linear_2760_8522"
        x1="656"
        y1="140"
        x2="656"
        y2="211"
        gradientUnits="userSpaceOnUse"
      >
    <stop offset="0.203119" stop-color="#396AF4" />
    <stop offset="1" stop-color="#396AF4" stop-opacity="0" />
    </linearGradient>
    </defs>
  </symbol>

  <symbol viewBox="0 0 10 10" fill="none" id="connected-dot-icon">
    <circle cx="5" cy="5" r="3" fill="#30E000" />
    <circle
      cx="5"
      cy="5"
      r="4"
      stroke="#3C4242"
      stroke-opacity="0.1"
      stroke-width="2"
    />
  </symbol>

  <symbol viewBox="0 0 19 18" fill="none" id="copy-address-icon">
    <path
      d="M4.04199 13.3027H5.18359V14.3008C5.18359 15.8525 6.03809 16.7002 7.59668 16.7002H14.624C16.1826 16.7002 17.0371 15.8525 17.0371 14.3008V7.24609C17.0371 5.69434 16.1826 4.84668 14.624 4.84668H13.4824V3.8418C13.4824 2.29688 12.6279 1.44238 11.0693 1.44238H4.04199C2.4834 1.44238 1.62891 2.29004 1.62891 3.8418V10.9033C1.62891 12.4551 2.4834 13.3027 4.04199 13.3027ZM4.2334 11.5391C3.68652 11.5391 3.39258 11.2656 3.39258 10.6846V4.06055C3.39258 3.47949 3.68652 3.21289 4.2334 3.21289H10.8779C11.4248 3.21289 11.7188 3.47949 11.7188 4.06055V4.84668H7.59668C6.03809 4.84668 5.18359 5.69434 5.18359 7.24609V11.5391H4.2334ZM7.78809 14.9365C7.24121 14.9365 6.94727 14.6699 6.94727 14.0889V7.45801C6.94727 6.87695 7.24121 6.61035 7.78809 6.61035H14.4326C14.9795 6.61035 15.2734 6.87695 15.2734 7.45801V14.0889C15.2734 14.6699 14.9795 14.9365 14.4326 14.9365H7.78809Z"
      fill="#25292E"
    />
  </symbol>

  <symbol viewBox="0 0 19 18" fill="none" id="disconnect-wallet-icon">
    <path
      d="M3.67773 16.5908H10.999C12.5508 16.5908 13.3984 15.7432 13.3984 14.1777V11.2656H11.6348V13.9863C11.6348 14.5332 11.3682 14.8271 10.7871 14.8271H3.88965C3.30859 14.8271 3.04199 14.5332 3.04199 13.9863V4.15625C3.04199 3.60254 3.30859 3.30859 3.88965 3.30859H10.7871C11.3682 3.30859 11.6348 3.60254 11.6348 4.15625V6.89746H13.3984V3.95801C13.3984 2.39941 12.5508 1.54492 10.999 1.54492H3.67773C2.12598 1.54492 1.27832 2.39941 1.27832 3.95801V14.1777C1.27832 15.7432 2.12598 16.5908 3.67773 16.5908ZM8.43555 9.85059H15.0869L16.0918 9.78906L15.5654 10.1445L14.6836 10.9648C14.54 11.1016 14.458 11.2861 14.458 11.4844C14.458 11.8398 14.7314 12.168 15.1211 12.168C15.3193 12.168 15.4629 12.0928 15.5996 11.9561L17.7803 9.68652C17.9854 9.48145 18.0537 9.27637 18.0537 9.06445C18.0537 8.85254 17.9854 8.64746 17.7803 8.43555L15.5996 6.17285C15.4629 6.03613 15.3193 5.9541 15.1211 5.9541C14.7314 5.9541 14.458 6.27539 14.458 6.6377C14.458 6.83594 14.54 7.02734 14.6836 7.15723L15.5654 7.98438L16.0918 8.33984L15.0869 8.27148H8.43555C8.01855 8.27148 7.65625 8.62012 7.65625 9.06445C7.65625 9.50195 8.01855 9.85059 8.43555 9.85059Z"
      fill="#25292E"
    />
  </symbol>

  <symbol viewBox="0 0 24 24" fill="none" id='redirect-link-icon'>
    <path
      d="M12 20.9443C17.0977 20.9443 21.2812 16.752 21.2812 11.6543C21.2812 6.56543 17.0889 2.37305 12 2.37305C6.90234 2.37305 2.71875 6.56543 2.71875 11.6543C2.71875 16.752 6.91113 20.9443 12 20.9443ZM12 18.6328C8.1416 18.6328 5.03906 15.5215 5.03906 11.6543C5.03906 7.7959 8.13281 4.68457 12 4.68457C15.8584 4.68457 18.9697 7.7959 18.9697 11.6543C18.9785 15.5215 15.8672 18.6328 12 18.6328ZM14.7158 14.1416C15.2432 14.1416 15.5684 13.7549 15.5684 13.1836V9.19336C15.5684 8.44629 15.1377 8.05957 14.417 8.05957H10.4092C9.8291 8.05957 9.45117 8.38477 9.45117 8.91211C9.45117 9.43945 9.8291 9.77344 10.4092 9.77344H11.6924L12.7207 9.63281L11.5342 10.6787L8.73047 13.4912C8.53711 13.6758 8.41406 13.9395 8.41406 14.2031C8.41406 14.7832 8.85352 15.1699 9.39844 15.1699C9.68848 15.1699 9.92578 15.0732 10.1543 14.8623L12.9316 12.0762L13.9775 10.8984L13.8545 11.9883V13.1836C13.8545 13.7725 14.1885 14.1416 14.7158 14.1416Z"
      fill="#3C4242"
      fill-opacity="0.3"
    />
  </symbol>

  <symbol viewBox="0 0 28 28" fill="none" id="transaction-failed-icon">
    <path
      d="M14 22.9443C19.0977 22.9443 23.2812 18.752 23.2812 13.6543C23.2812 8.56543 19.0889 4.37305 14 4.37305C8.90234 4.37305 4.71875 8.56543 4.71875 13.6543C4.71875 18.752 8.91113 22.9443 14 22.9443ZM14 20.6328C10.1416 20.6328 7.03906 17.5215 7.03906 13.6543C7.03906 9.7959 10.1328 6.68457 14 6.68457C17.8584 6.68457 20.9697 9.7959 20.9697 13.6543C20.9785 17.5215 17.8672 20.6328 14 20.6328ZM11.293 17.3018C11.583 17.3018 11.8115 17.2139 11.9961 17.0205L14 15.0166L16.0127 17.0205C16.1973 17.2051 16.4258 17.3018 16.707 17.3018C17.2432 17.3018 17.6562 16.8887 17.6562 16.3525C17.6562 16.0977 17.5508 15.8691 17.3662 15.6934L15.3535 13.6719L17.375 11.6416C17.5596 11.4482 17.6562 11.2285 17.6562 10.9824C17.6562 10.4463 17.2432 10.0332 16.7158 10.0332C16.4346 10.0332 16.2148 10.1211 16.0215 10.3145L14 12.3271L11.9873 10.3232C11.8027 10.1299 11.583 10.042 11.293 10.042C10.7656 10.042 10.3525 10.4551 10.3525 10.9912C10.3525 11.2373 10.4492 11.4658 10.6338 11.6416L12.6553 13.6719L10.6338 15.6934C10.4492 15.8691 10.3525 16.1064 10.3525 16.3525C10.3525 16.8887 10.7656 17.3018 11.293 17.3018Z"
      fill="#FF494A"
    />
  </symbol>

  <symbol viewBox="0 0 28 28" fill="none" id="transaction-success-icon">
    <path
      d="M14 22.9443C19.0977 22.9443 23.2812 18.752 23.2812 13.6543C23.2812 8.56543 19.0889 4.37305 14 4.37305C8.90234 4.37305 4.71875 8.56543 4.71875 13.6543C4.71875 18.752 8.91113 22.9443 14 22.9443ZM14 20.6328C10.1416 20.6328 7.03906 17.5215 7.03906 13.6543C7.03906 9.7959 10.1328 6.68457 14 6.68457C17.8584 6.68457 20.9697 9.7959 20.9697 13.6543C20.9785 17.5215 17.8672 20.6328 14 20.6328ZM13.0771 17.8379C13.4375 17.8379 13.7627 17.6533 13.9736 17.3369L17.7441 11.5098C17.8848 11.2988 17.9814 11.0791 17.9814 10.8682C17.9814 10.3496 17.5244 9.98926 17.0322 9.98926C16.707 9.98926 16.4258 10.165 16.2148 10.5166L13.0596 15.5967L11.5918 13.7949C11.3721 13.5225 11.1348 13.4082 10.8447 13.4082C10.335 13.4082 9.92188 13.8125 9.92188 14.3223C9.92188 14.5684 10.001 14.7793 10.1855 15.0078L12.1543 17.3545C12.4092 17.6709 12.708 17.8379 13.0771 17.8379Z"
      fill="#0E76FD"
    />
  </symbol>

  <symbol viewBox="0 0 16 17" fill="none" id="error-icon">
    <circle cx="8" cy="8.5" r="8" fill="#FF0000" fill-opacity="0.4" />
    <path
      d="M7.13707 10.2025C7.13707 9.64495 7.20477 9.2009 7.34018 8.87036C7.47558 8.53981 7.72249 8.21524 8.08092 7.89664C8.44332 7.57406 8.68426 7.31321 8.80374 7.11408C8.92321 6.91098 8.98295 6.69792 8.98295 6.4749C8.98295 5.80186 8.67231 5.46534 8.05105 5.46534C7.75635 5.46534 7.51939 5.55694 7.34018 5.74013C7.16495 5.91934 7.07335 6.16825 7.06539 6.48684H5.33301C5.34097 5.72619 5.5859 5.13081 6.06777 4.7007C6.55364 4.2706 7.21473 4.05554 8.05105 4.05554C8.89533 4.05554 9.55045 4.26064 10.0164 4.67083C10.4824 5.07705 10.7153 5.65252 10.7153 6.39724C10.7153 6.73575 10.6397 7.05634 10.4883 7.35901C10.337 7.65769 10.0722 7.99023 9.69382 8.35662L9.20995 8.81659C8.90728 9.10731 8.73404 9.44782 8.69024 9.8381L8.66634 10.2025H7.13707ZM6.96383 12.0364C6.96383 11.7696 7.05344 11.5506 7.23265 11.3793C7.41584 11.2041 7.64882 11.1165 7.93157 11.1165C8.21433 11.1165 8.44531 11.2041 8.62452 11.3793C8.80772 11.5506 8.89932 11.7696 8.89932 12.0364C8.89932 12.2993 8.80971 12.5163 8.6305 12.6876C8.45527 12.8588 8.22229 12.9444 7.93157 12.9444C7.64085 12.9444 7.40589 12.8588 7.22668 12.6876C7.05145 12.5163 6.96383 12.2993 6.96383 12.0364Z"
      fill="white"
    />
  </symbol>

  <symbol viewBox="0 0 93 92" fill="none" id="protect-icon">
    <rect x="5.5" y="5" width="82" height="82" rx="41" fill="#9EFFC0" />
    <path
      fill-rule="evenodd"
      clip-rule="evenodd"
      d="M46.5 25C44.6888 25 41.6621 25.6956 38.814 26.47C35.9003 27.2575 32.9629 28.1894 31.2356 28.7537C30.5135 28.9922 29.8732 29.4296 29.3885 30.0156C28.9037 30.6016 28.5941 31.3124 28.4951 32.0665C26.9306 43.8186 30.561 52.5284 34.9658 58.2902C36.8337 60.755 39.0608 62.9256 41.5729 64.7294C42.5861 65.446 43.5259 65.9946 44.3239 66.37C45.0589 66.7165 45.849 67 46.5 67C47.151 67 47.9385 66.7165 48.6761 66.37C49.6382 65.9024 50.5585 65.3535 51.4271 64.7294C53.9392 62.9256 56.1664 60.7551 58.0343 58.2902C62.439 52.5284 66.0694 43.8186 64.5049 32.0665C64.4061 31.3121 64.0966 30.6008 63.6118 30.0144C63.1271 29.4279 62.4868 28.9901 61.7644 28.7511C59.257 27.929 56.7301 27.1675 54.186 26.4674C51.3379 25.6982 48.3113 25 46.5 25ZM52.1333 38.5082C52.3797 38.2618 52.714 38.1233 53.0625 38.1233C53.4111 38.1233 53.7453 38.2618 53.9918 38.5082C54.2382 38.7547 54.3767 39.089 54.3767 39.4375C54.3767 39.786 54.2382 40.1203 53.9918 40.3668L46.1168 48.2418C45.9948 48.364 45.85 48.461 45.6906 48.5271C45.5311 48.5933 45.3602 48.6273 45.1875 48.6273C45.0149 48.6273 44.8439 48.5933 44.6845 48.5271C44.525 48.461 44.3802 48.364 44.2583 48.2418L40.3208 44.3043C40.1987 44.1822 40.1019 44.0373 40.0359 43.8779C39.9698 43.7185 39.9359 43.5476 39.9359 43.375C39.9359 43.2024 39.9698 43.0315 40.0359 42.8721C40.1019 42.7127 40.1987 42.5678 40.3208 42.4457C40.4428 42.3237 40.5877 42.2269 40.7471 42.1609C40.9065 42.0948 41.0774 42.0608 41.25 42.0608C41.4226 42.0608 41.5935 42.0948 41.7529 42.1609C41.9124 42.2269 42.0572 42.3237 42.1793 42.4457L45.1875 45.4566L52.1333 38.5082Z"
      fill="#039855"
      fill-opacity="0.79"
    />
    <rect
      x="5.5"
      y="5"
      width="82"
      height="82"
      rx="41"
      stroke="#ECFDF3"
      stroke-opacity="0.2"
      stroke-width="10"
    />
  </symbol>

  <symbol viewBox="0 0 10 11" fill="none" id="right-filled-arrow">
    <path
      d="M9.75 5.06699C10.0833 5.25944 10.0833 5.74056 9.75 5.93301L1.5 10.6962C1.16667 10.8886 0.749999 10.648 0.75 10.2631L0.75 0.736859C0.75 0.351959 1.16667 0.111397 1.5 0.303847L9.75 5.06699Z"
      fill="black"
    />
  </symbol>

  <symbol viewBox="0 0 20 21" fill="none" id="tooltip-icon">
    <path
      d="M10 18C14.1421 18 17.5 14.6421 17.5 10.5C17.5 6.35786 14.1421 3 10 3C5.85786 3 2.5 6.35786 2.5 10.5C2.5 14.6421 5.85786 18 10 18Z"
      stroke="black"
      stroke-opacity="0.6"
      stroke-linecap="round"
      stroke-linejoin="round"
    />
    <path
      d="M9.375 9.875H10V14.25H10.625"
      stroke="black"
      stroke-opacity="0.6"
      stroke-linecap="round"
      stroke-linejoin="round"
    />
    <path
      d="M9.84375 7.6875C10.1889 7.6875 10.4688 7.40768 10.4688 7.0625C10.4688 6.71732 10.1889 6.4375 9.84375 6.4375C9.49857 6.4375 9.21875 6.71732 9.21875 7.0625C9.21875 7.40768 9.49857 7.6875 9.84375 7.6875Z"
      fill="black"
      fill-opacity="0.6"
    />
  </symbol>

</svg>
